<?xml version="1.0" encoding="UTF-8"?>
<svg width="321px" height="202px" viewBox="0 0 321 202" version="1.1" xmlns="http://www.w3.org/2000/svg" xmlns:xlink="http://www.w3.org/1999/xlink">
    <!-- Generator: Sketch 45.2 (43514) - http://www.bohemiancoding.com/sketch -->
    <title>chemistry-4</title>
    <desc>Created with Sketch.</desc>
    <defs>
        <linearGradient x1="0.0425531915%" y1="50.1626722%" x2="99.8723404%" y2="50.1626722%" id="linearGradient-1">
            <stop stop-color="#19FF53" offset="0%"></stop>
            <stop stop-color="#18FF58" offset="14.13%"></stop>
            <stop stop-color="#15FF68" offset="31.66%"></stop>
            <stop stop-color="#11FF81" offset="50.97%"></stop>
            <stop stop-color="#0BFFA4" offset="71.58%"></stop>
            <stop stop-color="#03FFD1" offset="92.99%"></stop>
            <stop stop-color="#00FFE1" offset="100%"></stop>
        </linearGradient>
        <linearGradient x1="50.1119403%" y1="101.304348%" x2="50.1119403%" y2="-3.04347826%" id="linearGradient-2">
            <stop stop-color="#FFE061" offset="0%"></stop>
            <stop stop-color="#FFDA61" offset="16.89%"></stop>
            <stop stop-color="#FFCA61" offset="39%"></stop>
            <stop stop-color="#FFAF61" offset="63.99%"></stop>
            <stop stop-color="#FF8961" offset="90.92%"></stop>
            <stop stop-color="#FF7B61" offset="100%"></stop>
        </linearGradient>
        <linearGradient x1="51.2997429%" y1="2.58997084%" x2="46.7997429%" y2="101.637812%" id="linearGradient-3">
            <stop stop-color="#0DFF00" offset="0%"></stop>
            <stop stop-color="#00FFF2" offset="100%"></stop>
        </linearGradient>
    </defs>
    <g id="Page-1" stroke="none" stroke-width="1" fill="none" fill-rule="evenodd">
        <g id="chemistry-4" transform="translate(2.000000, 1.000000)">
            <g id="bg" transform="translate(24.000000, 53.000000)">
                <g id="color_1_" fill-rule="nonzero">
                    <path d="M272.2,43.8 C273.1,44.7 273.7,46 273.7,47.3 C273.7,50.1 271.5,52.3 268.7,52.3 L261.7,52.3 L253.7,52.3 L243.7,52.3 L221.7,52.3 L204.7,52.3 L182.7,52.3 L165.7,52.3 L143.7,52.3 L133.7,52.3 L125.7,52.3 L118.7,52.3 C117.3,52.3 116.1,51.7 115.2,50.8 C114.3,49.9 113.7,48.6 113.7,47.3 C113.7,44.5 115.9,42.3 118.7,42.3 L125.7,42.3 L133.7,42.3 L143.7,42.3 L165.7,42.3 L182.7,42.3 L204.7,42.3 L221.7,42.3 L243.7,42.3 L253.7,42.3 L261.7,42.3 L268.7,42.3 C270.1,42.4 271.3,42.9 272.2,43.8 Z" id="Shape" fill="#FFF5ED"></path>
                    <path d="M261.7,131.3 L262,131.3 C269.5,131.3 275.7,137.4 275.7,145 L275.7,145.3 L111.7,145.3 L111.7,145 C111.7,137.5 117.8,131.3 125.4,131.3 L125.7,131.3 L133.7,131.3 L253.7,131.3 L261.7,131.3 Z" id="Shape" fill="#FFF5ED"></path>
                    <rect id="Rectangle-path" fill="#FFF5ED" x="253.7" y="52.4" width="8" height="79"></rect>
                    <path d="M261.7,38.6 L261.7,42.3 L253.7,42.3 L253.7,38.6 C253.7,36.4 255.5,34.6 257.7,34.6 C259.9,34.6 261.7,36.4 261.7,38.6 Z" id="Shape" fill="#FFF5ED"></path>
                    <path d="M247.4,25.3 C248.2,26.1 248.7,27.2 248.7,28.5 C248.7,31 246.7,33 244.2,33 L243.7,33 L221.7,33 L221.2,33 C220,33 218.8,32.5 218,31.7 C217.2,30.9 216.7,29.8 216.7,28.5 C216.7,26 218.7,24 221.2,24 L244.2,24 C245.4,24 246.5,24.5 247.4,25.3 Z" id="Shape" fill="#F3FCFF"></path>
                    <path d="M243.7,84 L243.7,110 C243.7,116.1 238.8,121 232.7,121 C226.6,121 221.7,116.1 221.7,110 L221.7,85.7 C229.8,82 234.9,90.8 243.7,84 Z" id="Shape" fill="#E7F2FF"></path>
                    <path d="M243.7,52.4 L243.7,84 C234.9,90.8 229.8,82 221.7,85.6 L221.7,52.3 L243.7,52.3 L243.7,52.4 Z" id="Shape" fill="#F3FCFF"></path>
                    <rect id="Rectangle-path" fill="#F3FCFF" x="221.7" y="33" width="22" height="9.3"></rect>
                    <path d="M208.4,25.3 C209.2,26.1 209.7,27.2 209.7,28.5 C209.7,31 207.7,33 205.2,33 L204.7,33 L182.7,33 L182.2,33 C181,33 179.8,32.5 179,31.7 C178.2,30.9 177.7,29.8 177.7,28.5 C177.7,26 179.7,24 182.2,24 L205.2,24 C206.4,24 207.5,24.5 208.4,25.3 Z" id="Shape" fill="#F3FCFF"></path>
                    <path d="M204.7,71.1 L204.7,107.7 C204.7,116.1 199.8,121 193.7,121 C187.6,121 182.7,116.1 182.7,110 L182.7,69.5 C191.4,76.2 196.6,67.5 204.7,71.1 Z" id="Shape" fill="#FFEEF4"></path>
                    <path d="M204.7,52.4 L204.7,71.2 C196.6,67.6 191.5,76.3 182.7,69.6 L182.7,52.5 L204.7,52.5 L204.7,52.4 Z" id="Shape" fill="#F3FCFF"></path>
                    <rect id="Rectangle-path" fill="#F3FCFF" x="182.7" y="33" width="22" height="9.3"></rect>
                    <path d="M169.4,25.3 C170.2,26.1 170.7,27.2 170.7,28.5 C170.7,31 168.7,33 166.2,33 L165.7,33 L143.7,33 L143.2,33 C142,33 140.8,32.5 140,31.7 C139.2,30.9 138.7,29.8 138.7,28.5 C138.7,26 140.7,24 143.2,24 L166.2,24 C167.4,24 168.5,24.5 169.4,25.3 Z" id="Shape" fill="#F3FCFF"></path>
                    <path d="M165.7,82.9 L165.7,110 C165.7,116.1 160.8,121 154.7,121 C148.6,121 143.7,116.1 143.7,110 L143.7,82.3 C152.9,75.7 157.9,89.6 165.7,82.9 Z" id="Shape" fill="#E7F2FF"></path>
                    <path d="M165.7,52.4 L165.7,82.9 C157.9,89.6 152.9,75.7 143.7,82.3 L143.7,52.3 L165.7,52.3 L165.7,52.4 Z" id="Shape" fill="#F3FCFF"></path>
                    <rect id="Rectangle-path" fill="#F3FCFF" x="143.7" y="33" width="22" height="9.3"></rect>
                    <rect id="Rectangle-path" fill="#FFF5ED" x="125.7" y="52.4" width="8" height="79"></rect>
                    <path d="M133.7,38.6 L133.7,42.3 L125.7,42.3 L125.7,38.6 C125.7,36.4 127.5,34.6 129.7,34.6 C131.9,34.6 133.7,36.4 133.7,38.6 Z" id="Shape" fill="#FFF5ED"></path>
                    <path d="M79.8,15.9 L79.8,22.4 C79.8,25.7 77.1,28.4 73.8,28.4 L64.3,28.4 L40.2,28.4 L30.7,28.4 C27.4,28.4 24.7,25.7 24.7,22.4 L24.7,15.9 C24.7,12.6 27.4,9.9 30.7,9.9 L37.9,9.9 L66.6,9.9 L73.8,9.9 C77.1,9.9 79.8,12.6 79.8,15.9 Z" id="Shape" fill="#F3FCFF"></path>
                    <path d="M72.6,49.1 C85.4,54.6 95.6,65.1 100.6,78.1 C90.1,77 79.4,81.1 68.8,86.5 L68.8,86.5 C44.2,71.7 1.1,77.1 0.4,96.7 C0.4,75.3 13.4,57 31.9,49.1 L72.6,49.1 L72.6,49.1 Z" id="Shape" fill="#F3FCFF"></path>
                    <path d="M72.6,28.5 L72.6,49.1 L31.8,49.1 L31.8,28.5 L40.1,28.5 L40.4,31.2 C40.9,35.2 44.3,38.2 48.4,38.2 L55.9,38.2 C60,38.2 63.4,35.2 63.9,31.2 L64.2,28.5 L72.6,28.5 Z" id="Shape" fill="#F3FCFF"></path>
                    <path d="M59.9,0.1 C64.1,0.1 67.3,3.8 66.8,7.9 L66.6,9.9 L37.9,9.9 L37.7,7.9 C37.2,3.7 40.4,0.1 44.6,0.1 L59.9,0.1 Z" id="Shape" fill="#E8F2FB"></path>
                    <polygon id="Shape" fill="#A4B2EA" points="64.3 28.4 64.3 28.5 40.2 28.5 40.1 28.4"></polygon>
                    <path d="M64.3,28.5 L64,31.2 C63.5,35.2 60.1,38.2 56,38.2 L48.5,38.2 C44.5,38.2 41,35.2 40.5,31.2 L40.2,28.5 L64.3,28.5 Z" id="Shape" fill="#E8F2FB"></path>
                    <path d="M0.3,96.7 C1.1,77.2 44.2,71.7 68.7,86.5 C42.7,99.9 17.7,121.8 0.3,96.7 C0.3,96.7 0.3,96.7 0.3,96.7 Z" id="Shape" fill="#FFEEF4"></path>
                    <path d="M68.8,86.5 L68.8,86.5 C79.4,81 90.1,77 100.6,78.1 C102.9,83.9 104.1,90.2 104.1,96.8 C104.1,118.9 90.3,137.7 70.9,145.2 L33.6,145.2 C14.2,137.7 0.4,118.8 0.4,96.8 C0.4,96.8 0.4,96.8 0.4,96.7 C17.7,121.8 42.7,99.9 68.8,86.5 Z" id="Shape" fill="#FFEEF4"></path>
                    <path d="M93.1,129.6 C93.4,129.6 93.7,129.9 93.7,130.2 C93.7,130.6 93.4,130.8 93.1,130.8 C92.8,130.8 92.5,130.5 92.5,130.2 C92.4,129.8 92.7,129.6 93.1,129.6 Z" id="Shape" fill="#A4B2EA"></path>
                </g>
                <g id="shadows_1_" transform="translate(24.000000, 0.000000)" fill-rule="nonzero">
                    <rect id="Rectangle-path" fill="#212121" opacity="0.05" x="119.7" y="33" width="22.1" height="10.2"></rect>
                    <rect id="Rectangle-path" fill="#212121" opacity="0.05" x="119.3" y="52.3" width="17.5" height="5"></rect>
                    <path d="M124.9,118.2 C125.5,118.3 126.2,118.4 126.9,118.4 C132.4,118.4 136.8,114 136.8,108.5 L136.8,52.4 L141.8,52.4 L141.8,111.2 C141.8,116.7 137.4,121.1 131.9,121.1 C129.2,121 126.7,120 124.9,118.2 Z" id="Shape" fill="#212121" opacity="0.05"></path>
                    <path d="M125.8,27.3 L146.5,27.3 L143.9,24.3 L127.3,24.3 C127.5,24.2 127.8,24.1 128,24.1 L122.6,24.1 C122.5,24.1 122.4,24.1 122.4,24.1 C122.2,24.1 121.9,24.2 121.7,24.3 L116.5,24.3 L114.7,27.3 L119.6,27.3 C119.2,29.6 120.2,32.4 122.5,32.4 L127.9,32.3 C126.2,32.4 125.4,29.7 125.8,27.3 Z" id="Shape" fill="#FFFFFF"></path>
                    <rect id="Rectangle-path" fill="#212121" opacity="0.05" x="158.7" y="33" width="22.1" height="10.2"></rect>
                    <rect id="Rectangle-path" fill="#212121" opacity="0.05" x="158.3" y="52.3" width="17.5" height="5"></rect>
                    <path d="M163.9,118.2 C164.5,118.3 165.2,118.4 165.9,118.4 C171.4,118.4 175.8,114 175.8,108.5 L175.8,52.4 L180.8,52.4 L180.8,111.2 C180.8,116.7 176.4,121.1 170.9,121.1 C168.2,121 165.7,120 163.9,118.2 Z" id="Shape" fill="#212121" opacity="0.05"></path>
                    <path d="M164.8,27.3 L185.5,27.3 L182.9,24.3 L166.3,24.3 C166.5,24.2 166.8,24.1 167,24.1 L161.6,24.1 C161.5,24.1 161.4,24.1 161.4,24.1 C161.2,24.1 160.9,24.2 160.7,24.3 L155.5,24.3 L153.7,27.3 L158.6,27.3 C158.2,29.6 159.2,32.4 161.5,32.4 L166.9,32.3 C165.2,32.4 164.5,29.7 164.8,27.3 Z" id="Shape" fill="#FFFFFF"></path>
                    <rect id="Rectangle-path" fill="#212121" opacity="0.05" x="197.7" y="33" width="22.1" height="10.2"></rect>
                    <rect id="Rectangle-path" fill="#212121" opacity="0.05" x="197.3" y="52.3" width="17.5" height="5"></rect>
                    <path d="M202.9,118.2 C203.5,118.3 204.2,118.4 204.9,118.4 C210.4,118.4 214.8,114 214.8,108.5 L214.8,52.4 L219.8,52.4 L219.8,111.2 C219.8,116.7 215.4,121.1 209.9,121.1 C207.2,121 204.7,120 202.9,118.2 Z" id="Shape" fill="#212121" opacity="0.05"></path>
                    <path d="M203.8,27.3 L224.5,27.3 L221.9,24.3 L205.3,24.3 C205.5,24.2 205.8,24.1 206,24.1 L200.6,24.1 C200.5,24.1 200.4,24.1 200.4,24.1 C200.2,24.1 199.9,24.2 199.7,24.3 L194.5,24.3 L192.7,27.3 L197.6,27.3 C197.2,29.6 198.2,32.4 200.5,32.4 L205.9,32.3 C204.2,32.4 203.5,29.7 203.8,27.3 Z" id="Shape" fill="#FFFFFF"></path>
                    <rect id="Rectangle-path" fill="#212121" opacity="0.05" x="229.7" y="52.4" width="8" height="5"></rect>
                    <rect id="Rectangle-path" fill="#212121" opacity="0.05" x="101.7" y="52.4" width="8" height="5"></rect>
                    <path d="M250.8,140.3 C248.8,134.8 244.3,132 237.7,131.3 L213.4,131.3 L213.4,131.3 C201.8,137.2 189,140.3 175.9,140.3 L87.8,140.3 L87.8,145.3 L251.7,145.3 L251.7,140.3 L250.8,140.3 Z" id="Shape" fill="#212121" opacity="0.05"></path>
                    <path d="M91.2,136.8 L156.3,136.8 C159.2,136.8 162.2,134.4 162.2,131.4 L162.2,131.4 L100.3,131.4 C96.7,132.4 93.5,134 91.2,136.8 Z" id="Shape" fill="#FFFFFF" opacity="0.5"></path>
                    <path d="M89.7,47.4 L249.7,47.4 C249.4,43.9 247.3,41.9 242.2,42.4 L92.9,42.4 L89.7,47.4 Z" id="Shape" fill="#FFFFFF" opacity="0.5"></path>
                    <path d="M48.6,28.4 L8.1,28.4 L8.1,35.6 L27.8,35.6 C35.2,35.6 41.3,41.6 41.3,49.1 L41.3,49.1 L48.4,49.1 L48.4,35.6 L48.6,35.6 L48.6,28.4 Z" id="Shape" fill="#212121" opacity="0.04"></path>
                    <path d="M41.2,49.1 C75.6,65.1 84.3,118.7 46.8,145.2 C95.7,129.6 87.7,51 41.2,49.1 Z" id="Shape" fill="#212121" opacity="0.04"></path>
                    <path d="M42.6,5 C42.6,-1.6 13.6,-1.6 13.6,5 L17.1,5 C18.6,5 19.8,6.1 19.9,7.6 L20.1,10 L27,10 L27,7.9 C27,6.3 28.3,5.1 29.8,5.1 L42.6,5.1 L42.6,5 Z" id="Shape" fill="#FFFFFF" opacity="0.5"></path>
                    <path d="M55.8,15.1 C55.8,12.2 53.5,9.9 50.6,9.9 L5.9,9.9 C3,9.9 0.7,12.2 0.7,15.1 L6.2,15.1 C7.8,15.1 9.2,16.3 9.5,17.9 C10,22.1 11.4,25.7 14.3,28.6 L21.1,28.6 L21.1,18.4 C21.1,16.6 22.6,15.1 24.4,15.1 L55.8,15.1 Z" id="Shape" fill="#FFFFFF" opacity="0.5"></path>
                </g>
                <g id="lines">
                    <path d="M262,131.3 L125.3,131.3 C117.7,131.3 111.6,137.4 111.6,145 L111.6,145.3 L275.6,145.3 L275.6,145 C275.7,137.4 269.5,131.3 262,131.3 Z" id="Shape" stroke="#D3D5E6" stroke-width="3" stroke-linecap="round" stroke-linejoin="round"></path>
                    <path d="M133.7,38.6 L133.7,42.3 L125.7,42.3 L125.7,38.6 C125.7,36.4 127.5,34.6 129.7,34.6 C131.9,34.6 133.7,36.4 133.7,38.6 Z" id="Shape" stroke="#D3D5E6" stroke-width="3" stroke-linecap="round" stroke-linejoin="round"></path>
                    <rect id="Rectangle-path" stroke="#D3D5E6" stroke-width="3" stroke-linecap="round" stroke-linejoin="round" x="125.7" y="52.4" width="8" height="79"></rect>
                    <g id="XMLID_6_" transform="translate(253.000000, 52.000000)" stroke-linecap="round" stroke-width="3" stroke="#D3D5E6" stroke-linejoin="round">
                        <polyline id="Shape" points="0.7 0.4 0.7 79.3 8.7 79.3 8.7 0.4"></polyline>
                    </g>
                    <path d="M253.7,42.4 L253.7,38.7 C253.7,36.5 255.5,34.7 257.7,34.7 C259.9,34.7 261.7,36.5 261.7,38.7 L261.7,42.4" id="Shape" stroke="#D3D5E6" stroke-width="3" stroke-linecap="round" stroke-linejoin="round"></path>
                    <polyline id="Shape" stroke="#D3D5E6" stroke-width="3" stroke-linecap="round" stroke-linejoin="round" points="182.7 42.4 182.7 33 204.7 33 204.7 42.4"></polyline>
                    <path d="M204.7,52.4 L204.7,107.8 C204.7,116.2 199.8,121.1 193.7,121.1 C187.6,121.1 182.7,116.2 182.7,110.1 L182.7,52.4" id="Shape" stroke="#D3D5E6" stroke-width="3" stroke-linecap="round" stroke-linejoin="round"></path>
                    <polyline id="Shape" stroke="#D3D5E6" stroke-width="3" stroke-linecap="round" stroke-linejoin="round" points="143.7 42.4 143.7 33 165.7 33 165.7 42.4"></polyline>
                    <path d="M165.7,52.4 L165.7,110 C165.7,116.1 160.8,121 154.7,121 C148.6,121 143.7,116.1 143.7,110 L143.7,52.3" id="Shape" stroke="#D3D5E6" stroke-width="3" stroke-linecap="round" stroke-linejoin="round"></path>
                    <polyline id="Shape" stroke="#D3D5E6" stroke-width="3" stroke-linecap="round" stroke-linejoin="round" points="221.7 42.4 221.7 33 243.7 33 243.7 42.4"></polyline>
                    <path d="M243.7,52.4 L243.7,110 C243.7,116.1 238.8,121 232.7,121 C226.6,121 221.7,116.1 221.7,110 L221.7,52.3" id="Shape" stroke="#D3D5E6" stroke-width="3" stroke-linecap="round" stroke-linejoin="round"></path>
                    <path d="M166.2,24 L143.2,24 C140.7,24 138.7,26 138.7,28.5 L138.7,28.5 C138.7,31 140.7,33 143.2,33 L166.2,33 C168.7,33 170.7,31 170.7,28.5 L170.7,28.5 C170.7,26 168.7,24 166.2,24 Z" id="Shape" stroke="#D3D5E6" stroke-width="3" stroke-linecap="round" stroke-linejoin="round"></path>
                    <path d="M205.2,24 L182.2,24 C179.7,24 177.7,26 177.7,28.5 L177.7,28.5 C177.7,31 179.7,33 182.2,33 L205.2,33 C207.7,33 209.7,31 209.7,28.5 L209.7,28.5 C209.7,26 207.7,24 205.2,24 Z" id="Shape" stroke="#D3D5E6" stroke-width="3" stroke-linecap="round" stroke-linejoin="round"></path>
                    <path d="M244.2,24 L221.2,24 C218.7,24 216.7,26 216.7,28.5 L216.7,28.5 C216.7,31 218.7,33 221.2,33 L244.2,33 C246.7,33 248.7,31 248.7,28.5 L248.7,28.5 C248.7,26 246.7,24 244.2,24 Z" id="Shape" stroke="#D3D5E6" stroke-width="3" stroke-linecap="round" stroke-linejoin="round"></path>
                    <path d="M158.1,103.8 L158.2,103.8" id="Shape" stroke="#D3D5E6" stroke-width="3" stroke-linecap="round" stroke-linejoin="round"></path>
                    <path d="M197.3,101.7 L197.4,101.7" id="Shape" stroke="#D3D5E6" stroke-width="3" stroke-linecap="round" stroke-linejoin="round"></path>
                    <path d="M226.7,109.6 L226.8,109.6" id="Shape" stroke="#D3D5E6" stroke-width="3" stroke-linecap="round" stroke-linejoin="round"></path>
                    <path d="M152.7,88.6 L152.8,88.6" id="Shape" stroke="#D3D5E6" stroke-width="1.5" stroke-linecap="round" stroke-linejoin="round"></path>
                    <path d="M226.7,91.8 L226.8,91.8" id="Shape" stroke="#D3D5E6" stroke-width="1.5" stroke-linecap="round" stroke-linejoin="round"></path>
                    <path d="M199.9,76.9 L200,76.9" id="Shape" stroke="#D3D5E6" stroke-width="1.5" stroke-linecap="round" stroke-linejoin="round"></path>
                    <path d="M56.7,103.8 L56.8,103.8" id="Shape" stroke="#D3D5E6" stroke-width="1.5" stroke-linecap="round" stroke-linejoin="round"></path>
                    <path d="M45.9,89.5 L46,89.5" id="Shape" stroke="#D3D5E6" stroke-width="1.5" stroke-linecap="round" stroke-linejoin="round"></path>
                    <path d="M129.6,47.4 L129.7,47.4" id="Shape" stroke="#D3D5E6" stroke-width="3" stroke-linecap="round" stroke-linejoin="round"></path>
                    <path d="M257.6,47.4 L257.7,47.4" id="Shape" stroke="#D3D5E6" stroke-width="3" stroke-linecap="round" stroke-linejoin="round"></path>
                    <path d="M221.7,85.7 C229.8,82.1 234.9,90.8 243.7,84.1" id="Shape" stroke="#D3D5E6" stroke-width="3" stroke-linecap="round" stroke-linejoin="round"></path>
                    <path d="M143.7,82.3 C152.9,75.6 157.9,89.6 165.7,82.9" id="Shape" stroke="#D3D5E6" stroke-width="3" stroke-linecap="round" stroke-linejoin="round"></path>
                    <path d="M204.7,71.1 C196.6,67.5 191.5,76.2 182.7,69.5" id="Shape" stroke="#D3D5E6" stroke-width="3" stroke-linecap="round" stroke-linejoin="round"></path>
                    <path d="M268.7,42.4 L118.7,42.4 C115.9,42.4 113.7,44.6 113.7,47.4 L113.7,47.4 C113.7,50.2 115.9,52.4 118.7,52.4 L268.7,52.4 C271.5,52.4 273.7,50.2 273.7,47.4 L273.7,47.4 C273.7,44.6 271.4,42.4 268.7,42.4 Z" id="Shape" stroke="#D3D5E6" stroke-width="3" stroke-linecap="round" stroke-linejoin="round"></path>
                    <path d="M93.1,129.6 C93.4,129.6 93.7,129.9 93.7,130.2 C93.7,130.6 93.4,130.8 93.1,130.8 C92.8,130.8 92.5,130.5 92.5,130.2 C92.4,129.8 92.7,129.6 93.1,129.6 Z" id="Shape" fill="#A4B2EA" fill-rule="nonzero"></path>
                    <path d="M30.7,28.4 L73.8,28.4 C77.1,28.4 79.8,25.7 79.8,22.4 L79.8,15.9 C79.8,12.6 77.1,9.9 73.8,9.9 L30.7,9.9 C27.4,9.9 24.7,12.6 24.7,15.9 L24.7,22.4 C24.7,25.7 27.4,28.4 30.7,28.4 Z" id="Shape" stroke="#D3D5E6" stroke-width="3" stroke-linecap="round" stroke-linejoin="round"></path>
                    <path d="M33.5,145.2 C14.1,137.7 0.3,118.8 0.3,96.8 C0.3,75.4 13.3,57 31.8,49.1" id="Shape" stroke="#D3D5E6" stroke-width="3" stroke-linecap="round" stroke-linejoin="round"></path>
                    <path d="M72.6,49.1 C91.1,57 104.1,75.4 104.1,96.8 C104.1,118.9 90.3,137.7 70.9,145.2" id="Shape" stroke="#D3D5E6" stroke-width="3" stroke-linecap="round" stroke-linejoin="round"></path>
                    <rect id="Rectangle-path" stroke="#D3D5E6" stroke-width="3" stroke-linecap="round" stroke-linejoin="round" x="31.8" y="28.5" width="40.8" height="20.6"></rect>
                    <path d="M40.1,28.4 L40.5,31.2 C41,35.2 44.4,38.2 48.5,38.2 L56,38.2 C60,38.2 63.5,35.2 64,31.2 L64.3,28.4" id="Shape" stroke="#D3D5E6" stroke-width="3" stroke-linecap="round" stroke-linejoin="round"></path>
                    <path d="M37.8,9.9 L37.6,7.9 C37.1,3.7 40.3,0.1 44.5,0.1 L59.9,0.1 C64.1,0.1 67.3,3.8 66.8,7.9 L66.6,9.9" id="Shape" stroke="#D3D5E6" stroke-width="3" stroke-linecap="round" stroke-linejoin="round"></path>
                    <path d="M85.8,129.6 C86.1,129.6 86.4,129.9 86.4,130.2 C86.4,130.6 86.1,130.8 85.8,130.8 C85.5,130.8 85.2,130.5 85.2,130.2 C85.1,129.8 85.4,129.6 85.8,129.6 Z" id="Shape" fill="#A4B2EA" fill-rule="nonzero"></path>
                    <circle id="Oval" stroke="#D3D5E6" stroke-width="1.5" stroke-linecap="round" stroke-linejoin="round" cx="85.8" cy="130.2" r="1"></circle>
                    <circle id="Oval" stroke="#D3D5E6" stroke-width="1.5" stroke-linecap="round" stroke-linejoin="round" cx="16.9" cy="93.1" r="1"></circle>
                    <circle id="Oval" stroke="#D3D5E6" stroke-width="1.5" stroke-linecap="round" stroke-linejoin="round" cx="28.4" cy="121" r="1"></circle>
                    <circle id="Oval" stroke="#D3D5E6" stroke-width="1.5" stroke-linecap="round" stroke-linejoin="round" cx="60.5" cy="109" r="1"></circle>
                    <path d="M68.8,86.5 L68.8,86.5 C42.8,99.9 17.7,121.8 0.3,96.7 C1,77.2 44.2,71.7 68.8,86.5 C79.4,81 90.1,77 100.6,78.1" id="Shape" stroke="#D3D5E6" stroke-width="3" stroke-linecap="round" stroke-linejoin="round"></path>
                    <circle id="Oval" stroke="#D3D5E6" stroke-width="1.5" stroke-linecap="round" stroke-linejoin="round" cx="88.6" cy="91.8" r="2.3"></circle>
                    <circle id="Oval" stroke="#D3D5E6" stroke-width="1.5" stroke-linecap="round" stroke-linejoin="round" cx="52.4" cy="127.6" r="4.3"></circle>
                    <circle id="Oval" stroke="#D3D5E6" stroke-width="1.5" stroke-linecap="round" stroke-linejoin="round" cx="18.8" cy="121" r="2.3"></circle>
                    <circle id="Oval" stroke="#D3D5E6" stroke-width="1.5" stroke-linecap="round" stroke-linejoin="round" cx="197.4" cy="82.2" r="2.3"></circle>
                    <circle id="Oval" stroke="#D3D5E6" stroke-width="1.5" stroke-linecap="round" stroke-linejoin="round" cx="235" cy="110.7" r="2.3"></circle>
                    <circle id="Oval" stroke="#D3D5E6" stroke-width="1.5" stroke-linecap="round" stroke-linejoin="round" cx="150.4" cy="98.4" r="2.3"></circle>
                    <path d="M25.5,64.3 L20.7,69.2" id="Shape" stroke="#D3D5E6" stroke-width="1.5" stroke-linecap="round" stroke-linejoin="round"></path>
                    <path d="M26,68.2 L32.1,62.1" id="Shape" stroke="#D3D5E6" stroke-width="1.5" stroke-linecap="round" stroke-linejoin="round"></path>
                    <path d="M68.1,49.1 L68.1,44.1" id="Shape" stroke="#D3D5E6" stroke-width="1.5" stroke-linecap="round" stroke-linejoin="round"></path>
                    <path d="M265.8,141.2 L275.1,141.2" id="Shape" stroke="#D3D5E6" stroke-width="1.5" stroke-linecap="round" stroke-linejoin="round"></path>
                </g>
                <g id="top_lights" transform="translate(0.000000, 50.000000)" fill-rule="nonzero" fill="#FFFFFF" opacity="0.5">
                    <path d="M154.4,7.3 L148.5,7.3 L148.5,56.5 C148.5,58.1 149.8,59.4 151.4,59.4 L151.4,59.4 C153,59.4 154.3,58.1 154.3,56.5 L154.3,7.3 L154.4,7.3 Z" id="Shape"></path>
                    <path d="M194,7.3 L188.1,7.3 L188.1,56.5 C188.1,58.1 189.4,59.4 191,59.4 L191,59.4 C192.6,59.4 193.9,58.1 193.9,56.5 L193.9,7.3 L194,7.3 Z" id="Shape"></path>
                    <path d="M233,7.3 L227.1,7.3 L227.1,56.5 C227.1,58.1 228.4,59.4 230,59.4 L230,59.4 C231.6,59.4 232.9,58.1 232.9,56.5 L232.9,7.3 L233,7.3 Z" id="Shape"></path>
                    <ellipse id="Oval" transform="translate(25.506300, 28.471300) rotate(-58.195049) translate(-25.506300, -28.471300) " cx="25.5063" cy="28.4713" rx="24.2986518" ry="13.7992344"></ellipse>
                    <circle id="Oval" transform="translate(50.463000, 8.952700) rotate(-58.195049) translate(-50.463000, -8.952700) " cx="50.463" cy="8.9527" r="4.09977253"></circle>
                </g>
            </g>
            <g id="main">
                <g id="color" transform="translate(90.000000, 0.000000)" fill-rule="nonzero">
                    <path d="M128,50.6 C131.3,50.6 134,53.3 134,56.6 C134,58.3 133.3,59.8 132.2,60.8 C131.1,61.9 129.6,62.6 128,62.6 L122.7,62.6 L110.7,62.6 L66.3,62.6 L27.4,62.6 L27.4,62.6 C24.1,62.6 21.4,59.9 21.4,56.6 C21.4,53.3 24.1,50.6 27.4,50.6 L27.4,50.6 L66.3,50.6 L110.7,50.6 L122.7,50.6 L128,50.6 Z" id="Shape" fill="#19D2FF"></path>
                    <path d="M122.6,177.8 C128.2,177.8 133.4,180.1 137.1,183.8 C140.8,187.5 143.1,192.6 143.1,198.3 L0.9,198.3 C0.9,187 10.1,177.8 21.4,177.8 L27.6,177.8 L66,177.8 L110.6,177.8 L122.6,177.8 Z" id="Shape" fill="#19D2FF"></path>
                    <rect id="Rectangle-path" fill="#19D2FF" x="110.6" y="62.7" width="12" height="115.1"></rect>
                    <path d="M122.6,45.4 L122.6,50.7 L110.6,50.7 L110.6,45.4 C110.6,42.1 113.3,39.4 116.6,39.4 C120,39.3 122.6,42 122.6,45.4 Z" id="Shape" fill="#19D2FF"></path>
                    <path d="M72.8,25.8 C74.2,27.2 75.1,29.2 75.1,31.4 C75.1,35.8 71.5,39.3 67.1,39.3 L66.2,39.3 L27.3,39.3 L26.4,39.3 C24.2,39.3 22.2,38.4 20.8,37 C19.4,35.6 18.5,33.6 18.5,31.4 C18.5,27 22.1,23.4 26.5,23.4 L67.2,23.4 C69.3,23.4 71.3,24.3 72.8,25.8 Z" id="Shape" fill="#ECF7FF"></path>
                    <path d="M70.5,167.1 C71.6,168.2 72.3,169.8 72.3,171.5 C72.3,175 69.5,177.7 66.1,177.7 L27.7,177.7 C26,177.7 24.4,177 23.3,175.9 C22.2,174.8 21.5,173.2 21.5,171.5 C21.5,168 24.3,165.3 27.7,165.3 L46.9,165.3 L66,165.3 C67.8,165.2 69.3,166 70.5,167.1 Z" id="Shape" fill="#B5DCFF"></path>
                    <path d="M66.3,62.7 L66.3,82 C61,77.2 50.9,77.6 42.8,81.7 C38.5,80 33.6,78.9 27.4,80.5 L27.4,62.7 L66.3,62.7 Z" id="Shape" fill="#ECF7FF"></path>
                    <rect id="Rectangle-path" fill="#ECF7FF" x="27.4" y="39.3" width="38.9" height="11.3"></rect>
                    <path d="M66.3,82 C56.8,89.4 50.7,84.7 42.8,81.7 C50.9,77.6 61,77.2 66.3,82 Z" id="Shape" fill="url(#linearGradient-1)"></path>
                    <path d="M53.5,158.5 C53.5,162.2 50.5,165.2 46.8,165.2 C43.1,165.2 40.1,162.2 40.1,158.5 C40.1,154.8 46.8,142.2 46.8,142.2 C46.8,142.2 53.5,154.8 53.5,158.5 Z" id="Shape" fill="url(#linearGradient-2)"></path>
                    <path d="M42.8,81.7 C50.6,84.7 56.7,89.4 66.3,82 L66.3,113.7 C66.3,124.4 57.6,133.2 46.9,133.2 C36.2,133.2 27.4,124.5 27.4,113.7 L27.4,80.5 C33.6,78.8 38.5,80 42.8,81.7 Z" id="Shape" fill="url(#linearGradient-3)"></path>
                    <circle id="Oval" fill="#90FF8C" cx="30.9" cy="10" r="3.5"></circle>
                    <circle id="Oval" fill="#90FF8C" cx="44.1" cy="15.5" r="2.4"></circle>
                    <circle id="Oval" fill="#90FF8C" cx="77.5" cy="2.8" r="2.4"></circle>
                </g>
                <g id="shadows" transform="translate(91.000000, 1.000000)" fill-rule="nonzero">
                    <rect id="Rectangle-path" fill="#004075" opacity="0.3" x="109.6" y="61.7" width="12.6" height="5.7"></rect>
                    <path d="M42.1,27.8 L74.3,27.8 L68.2,22.5 L22.3,22.5 L17.5,27.8 L26.1,27.8 C27.5,27.8 28.6,29 28.6,30.3 C28.6,33.4 29.8,36.1 32.4,38.3 L40.4,38.3 C39.5,35.8 39.2,33 39.7,29.8 C39.8,28.6 40.8,27.8 42.1,27.8 Z" id="Shape" fill="#FFFFFF"></path>
                    <rect id="Rectangle-path" fill="#004075" opacity="0.2" x="26.9" y="38.3" width="38.4" height="5.7"></rect>
                    <rect id="Rectangle-path" fill="#004075" opacity="0.2" x="26.9" y="61.1" width="38.4" height="6.3"></rect>
                    <path d="M109.6,155.8 C118.1,151.5 121.2,141.4 122.2,128.9 L122.2,176.8 L109.6,176.8 L109.6,155.8 Z" id="Shape" fill="#004075" opacity="0.15"></path>
                    <circle id="Oval" fill="#FFFFFF" opacity="0.8" cx="28.9" cy="8.1" r="1.1"></circle>
                    <circle id="Oval" fill="#FFFFFF" opacity="0.8" cx="42.5" cy="14.3" r="1"></circle>
                    <circle id="Oval" fill="#FFFFFF" opacity="0.8" cx="76.1" cy="1.8" r="1"></circle>
                    <path d="M114.1,49.6 L114.1,44 C114.8,41.1 117.3,40.1 120.5,39.9 L114.3,38.4 L110.2,41.2 L108.9,47.5 L109.4,50.1 L114.1,49.6 Z" id="Shape" fill="#FFFFFF" opacity="0.65"></path>
                    <path d="M71.5,169.4 C70.9,169.2 70.2,169.1 69.6,169.1 L28.9,169.1 C26.7,169.1 24.9,170.9 24.9,173.1 L24.9,175.4 C24.9,176.1 25,176.7 25.2,177.3 C24.3,177 23.4,176.5 22.7,175.8 C21.6,174.7 20.9,173.1 20.9,171.4 C20.9,167.9 23.7,165.2 27.1,165.2 L65.5,165.2 C67.2,165.2 68.8,165.9 69.9,167 C70.6,167.6 71.2,168.4 71.5,169.4 Z" id="Shape" fill="#FFFFFF" opacity="0.65"></path>
                    <path d="M83.3,197.3 C108.1,197.3 107.6,181.8 107.6,176.6 L124,176.6 L134.7,181.2 L140.7,189.6 L142.1,197.6 L83.3,197.3 Z" id="Shape" fill="#004075" opacity="0.1"></path>
                    <path d="M139.3,186 C136,183.7 131.9,182.3 127.5,182.3 L24.3,182.3 C15.1,182.3 7.5,189 6.1,197.8 L0.9,197.8 C0.9,186.5 10.1,177.3 21.4,177.3 L122.7,177.3 C128.3,177.3 133.5,179.6 137.2,183.3 C137.9,184.1 138.6,185 139.3,186 Z" id="Shape" fill="#FFFFFF" opacity="0.65"></path>
                    <path d="M132.7,53.9 C132.1,53.7 131.6,53.6 130.9,53.6 L28.1,53.6 C26,53.6 24.3,55.3 24.3,57.4 L24.3,59.6 C24.3,60.2 24.4,60.8 24.6,61.4 C22.1,60.6 20.3,58.4 20.3,55.6 C20.3,52.3 23,49.6 26.3,49.6 L127,49.6 C129.7,49.6 132,51.4 132.7,53.9 Z" id="Shape" fill="#FFFFFF" opacity="0.65"></path>
                    <path d="M65.3,106.7 C65.3,117.4 56.6,126.2 45.9,126.2 C35.1,126.2 26.4,117.5 26.4,106.7 L26.4,111.7 C26.4,122.4 35.1,131.2 45.9,131.2 C56.6,131.2 65.3,122.5 65.3,111.7 L65.3,106.7 Z" id="Shape" fill="#FFFD8C" opacity="0.65"></path>
                    <path d="M61.7,164.2 L30.6,164.2 L30.6,164.2 C30.6,166.9 32.8,169 35.4,169 L56.9,169 C59.5,169.1 61.7,166.9 61.7,164.2 L61.7,164.2 Z" id="Shape" fill="#FFFD8C" opacity="0.5"></path>
                </g>
                <g id="lines_1_" stroke-linecap="round" stroke-linejoin="round">
                    <path d="M317,198.3 L27,198.3" id="Shape" stroke="#454C7A" stroke-width="4"></path>
                    <path d="M13,198.3 L0,198.3" id="Shape" stroke="#454C7A" stroke-width="4"></path>
                    <path d="M212.6,177.8 L111.4,177.8 C100.1,177.8 90.9,187 90.9,198.3 L90.9,198.3 L233.1,198.3 L233.1,198.3 C233.1,186.9 224,177.8 212.6,177.8 Z" id="Shape" stroke="#484D78" stroke-width="4"></path>
                    <polyline id="Shape" stroke="#484D78" stroke-width="4" points="117.4 50.6 117.4 39.3 156.3 39.3 156.3 50.6"></polyline>
                    <path d="M156.3,62.7 L156.3,113.8 C156.3,124.5 147.6,133.3 136.8,133.3 C126,133.3 117.3,124.6 117.3,113.8 L117.3,62.7" id="Shape" stroke="#484D78" stroke-width="4"></path>
                    <path d="M157.1,23.4 L116.4,23.4 C112,23.4 108.4,27 108.4,31.4 L108.4,31.4 C108.4,35.8 112,39.4 116.4,39.4 L157.1,39.4 C161.5,39.4 165.1,35.8 165.1,31.4 L165.1,31.4 C165.1,27 161.5,23.4 157.1,23.4 Z" id="Shape" stroke="#484D78" stroke-width="4"></path>
                    <path d="M200.6,50.6 L200.6,45.3 C200.6,42 203.3,39.3 206.6,39.3 C209.9,39.3 212.6,42 212.6,45.3 L212.6,50.6" id="Shape" stroke="#484D78" stroke-width="4"></path>
                    <polyline id="Shape" stroke="#484D78" stroke-width="4" points="212.6 62.7 212.6 177.8 200.6 177.8 200.6 62.7"></polyline>
                    <path d="M111.4,56.7 L111.4,56.7 C111.4,53.4 114.1,50.7 117.4,50.7 L218,50.7 C221.3,50.7 224,53.4 224,56.7 L224,56.7 C224,60 221.3,62.7 218,62.7 L117.4,62.7 C114,62.7 111.4,60 111.4,56.7 Z" id="Shape" stroke="#484D78" stroke-width="4"></path>
                    <path d="M117.4,80.5 C135,75.8 141.5,93.5 156.3,82 C151,77.2 140.9,77.6 132.8,81.7" id="Shape" stroke="#484D78" stroke-width="4"></path>
                    <circle id="Oval" stroke="#484D78" stroke-width="2" cx="126.8" cy="97.1" r="2.4"></circle>
                    <circle id="Oval" stroke="#484D78" stroke-width="2" cx="134.1" cy="15.5" r="2.4"></circle>
                    <circle id="Oval" stroke="#484D78" stroke-width="2" cx="146.8" cy="113.3" r="3.5"></circle>
                    <circle id="Oval" stroke="#484D78" stroke-width="2" cx="120.9" cy="10" r="3.5"></circle>
                    <circle id="Oval" stroke="#484D78" stroke-width="2" cx="167.5" cy="2.8" r="2.3"></circle>
                    <path d="M156,165.2 L117.6,165.2 C114.1,165.2 111.4,168 111.4,171.4 L111.4,171.4 C111.4,174.9 114.2,177.6 117.6,177.6 L156,177.6 C159.5,177.6 162.2,174.8 162.2,171.4 L162.2,171.4 C162.3,168 159.5,165.2 156,165.2 Z" id="Shape" stroke="#484D78" stroke-width="4"></path>
                    <path d="M143.5,158.5 C143.5,162.2 140.5,165.2 136.8,165.2 C133.1,165.2 130.1,162.2 130.1,158.5 C130.1,154.8 136.8,142.2 136.8,142.2 C136.8,142.2 143.5,154.8 143.5,158.5 Z" id="Shape" stroke="#484D78" stroke-width="4"></path>
                    <path d="M136.8,158.7 L136.8,165.2" id="Shape" stroke="#484D78" stroke-width="2"></path>
                    <path d="M208.2,62.7 L208.2,68.4" id="Shape" stroke="#484D78" stroke-width="2"></path>
                    <path d="M223.7,192.1 L232.2,192.1" id="Shape" stroke="#484D78" stroke-width="2"></path>
                    <path d="M216.7,192.1 L219.8,192.1" id="Shape" stroke="#484D78" stroke-width="2"></path>
                    <path d="M98.4,192.1 L91.8,192.1" id="Shape" stroke="#484D78" stroke-width="2"></path>
                </g>
                <g id="light" transform="translate(117.000000, 45.000000)">
                    <path d="M17.9,23.4 L17.9,66.5 C17.9,69.7 15.3,72.2 12.2,72.2 L12.2,72.2 C9,72.2 6.5,69.6 6.5,66.5 L6.5,23.4 L17.9,23.4 Z" id="Shape" fill="#FFFFFF" fill-rule="nonzero" opacity="0.75"></path>
                    <rect id="Rectangle-path" fill="#FFFFFF" fill-rule="nonzero" opacity="0.75" x="6.4" y="0" width="11.5" height="5.9"></rect>
                    <path d="M0.4,5.6 L100.9,5.6" id="Shape" stroke="#484D78" stroke-width="4" stroke-linecap="round" stroke-linejoin="round"></path>
                </g>
            </g>
        </g>
    </g>
</svg>