<?xml version="1.0" encoding="UTF-8"?>
<svg width="324px" height="238px" viewBox="0 0 324 238" version="1.1" xmlns="http://www.w3.org/2000/svg" xmlns:xlink="http://www.w3.org/1999/xlink">
    <!-- Generator: Sketch 45.2 (43514) - http://www.bohemiancoding.com/sketch -->
    <title>chemistry-2</title>
    <desc>Created with Sketch.</desc>
    <defs>
        <linearGradient x1="0%" y1="49.9887892%" x2="100%" y2="49.9887892%" id="linearGradient-1">
            <stop stop-color="#FFE473" offset="0%"></stop>
            <stop stop-color="#FFDE73" offset="18.14%"></stop>
            <stop stop-color="#FFCE73" offset="41.89%"></stop>
            <stop stop-color="#FFB373" offset="68.74%"></stop>
            <stop stop-color="#FF8D73" offset="97.68%"></stop>
            <stop stop-color="#FF8A73" offset="100%"></stop>
        </linearGradient>
        <linearGradient x1="-2.11270645%" y1="51.8181818%" x2="100%" y2="51.8181818%" id="linearGradient-2">
            <stop stop-color="#FFE473" offset="0%"></stop>
            <stop stop-color="#FFDE73" offset="18.14%"></stop>
            <stop stop-color="#FFCE73" offset="41.89%"></stop>
            <stop stop-color="#FFB373" offset="68.74%"></stop>
            <stop stop-color="#FF8D73" offset="97.68%"></stop>
            <stop stop-color="#FF8A73" offset="100%"></stop>
        </linearGradient>
        <linearGradient x1="0%" y1="49.9746934%" x2="100%" y2="49.9746934%" id="linearGradient-3">
            <stop stop-color="#FFE473" offset="0%"></stop>
            <stop stop-color="#FFDE73" offset="18.14%"></stop>
            <stop stop-color="#FFCE73" offset="41.89%"></stop>
            <stop stop-color="#FFB373" offset="68.74%"></stop>
            <stop stop-color="#FF8D73" offset="97.68%"></stop>
            <stop stop-color="#FF8A73" offset="100%"></stop>
        </linearGradient>
        <linearGradient x1="0%" y1="49.9903101%" x2="100%" y2="49.9903101%" id="linearGradient-4">
            <stop stop-color="#FFE473" offset="0%"></stop>
            <stop stop-color="#FFDE73" offset="18.14%"></stop>
            <stop stop-color="#FFCE73" offset="41.89%"></stop>
            <stop stop-color="#FFB373" offset="68.74%"></stop>
            <stop stop-color="#FF8D73" offset="97.68%"></stop>
            <stop stop-color="#FF8A73" offset="100%"></stop>
        </linearGradient>
        <linearGradient x1="1.04166667%" y1="49.2708333%" x2="100%" y2="49.2708333%" id="linearGradient-5">
            <stop stop-color="#FFE473" offset="0%"></stop>
            <stop stop-color="#FFDE73" offset="18.14%"></stop>
            <stop stop-color="#FFCE73" offset="41.89%"></stop>
            <stop stop-color="#FFB373" offset="68.74%"></stop>
            <stop stop-color="#FF8D73" offset="97.68%"></stop>
            <stop stop-color="#FF8A73" offset="100%"></stop>
        </linearGradient>
        <linearGradient x1="0.263157895%" y1="49.7368421%" x2="101.315789%" y2="49.7368421%" id="linearGradient-6">
            <stop stop-color="#FFE473" offset="0%"></stop>
            <stop stop-color="#FFDE73" offset="18.14%"></stop>
            <stop stop-color="#FFCE73" offset="41.89%"></stop>
            <stop stop-color="#FFB373" offset="68.74%"></stop>
            <stop stop-color="#FF8D73" offset="97.68%"></stop>
            <stop stop-color="#FF8A73" offset="100%"></stop>
        </linearGradient>
    </defs>
    <g id="Page-1" stroke="none" stroke-width="1" fill="none" fill-rule="evenodd">
        <g id="chemistry-2" transform="translate(2.000000, 1.000000)">
            <g id="back_objects" transform="translate(30.000000, 72.000000)">
                <g id="colors_2" transform="translate(1.000000, 0.000000)" fill-rule="nonzero">
                    <path d="M243.7,111 C241.3,111.6 238.9,112.2 236.3,112.5 C236.3,112.5 236.3,112.5 236.3,112.5 C227.6,113.8 218.1,113.3 209.3,110.1 C208.2,109.7 207,109.3 205.9,108.9 C225.8,94 249.1,96 260.6,98.8 C260.9,99.9 261.1,101 261.3,102.2 C257.2,105.9 251.1,109 244,111 C243.8,110.9 243.8,111 243.7,111 Z" id="Shape" fill="#E7F2FF"></path>
                    <path d="M246.9,116.2 C247.2,116.2 247.5,116.5 247.5,116.8 C247.5,117.1 247.2,117.4 246.9,117.4 C246.6,117.4 246.3,117.1 246.3,116.8 C246.2,116.5 246.5,116.2 246.9,116.2 Z" id="Shape" fill="#A4B2EA"></path>
                    <path d="M192.6,57.4 C197,56.3 201.7,55.6 206.5,55.6 C211.3,55.6 215.9,56.2 220.4,57.4 C240.4,62.5 256,78.5 260.6,98.7 C249.2,95.9 225.8,93.9 205.9,108.8 C183.7,101.2 169.5,101.2 151,108.2 C152.3,83.7 169.6,63.4 192.6,57.4 Z" id="Shape" fill="#F3FCFF"></path>
                    <path d="M244.1,138.9 C244.9,138.9 245.5,139.5 245.5,140.3 C245.5,141.1 244.9,141.7 244.1,141.7 C243.3,141.7 242.7,141.1 242.7,140.3 C242.7,139.5 243.3,138.9 244.1,138.9 Z" id="Shape" fill="#E7F2FF"></path>
                    <path d="M240.2,147.3 C240.5,147.3 240.8,147.6 240.8,147.9 C240.8,148.3 240.5,148.5 240.2,148.5 C239.9,148.5 239.6,148.2 239.6,147.9 C239.6,147.6 239.9,147.3 240.2,147.3 Z" id="Shape" fill="#A4B2EA"></path>
                    <path d="M239.6,129.8 C239.9,129.8 240.1,130 240.1,130.3 C240.1,130.6 239.9,130.8 239.6,130.8 C239.3,130.8 239.1,130.6 239.1,130.3 C239.1,130 239.3,129.8 239.6,129.8 Z" id="Shape" fill="#A4B2EA"></path>
                    <path d="M240.2,116.5 C238.1,116.5 236.3,114.8 236.3,112.6 C236.3,112.6 236.3,112.5 236.3,112.5 L236.3,112.4 C236.3,112.4 236.3,112.4 236.3,112.4 C238.8,112 241.3,111.5 243.7,110.9 C244,111.4 244.1,112 244.1,112.6 C244.1,114.8 242.4,116.5 240.2,116.5 Z" id="Shape" fill="#E7F2FF"></path>
                    <path d="M236.3,112.6 C236.3,114.7 238,116.5 240.2,116.5 C242.3,116.5 244.1,114.8 244.1,112.6 C244.1,112 244,111.4 243.7,110.9 C243.8,110.9 243.8,110.9 243.9,110.8 C251,108.8 257.1,105.7 261.2,102 C261.7,104.9 261.9,108 261.9,111.1 C261.9,134.7 247.2,154.9 226.4,162.9 L186.5,162.9 C165.7,154.9 151,134.7 151,111.1 C151,110.1 151,109.2 151.1,108.2 C169.6,101.2 183.8,101.2 206,108.8 C207.1,109.2 208.2,109.6 209.4,110 C218.2,113.2 227.7,113.7 236.4,112.4 L236.3,112.6 C236.3,112.6 236.3,112.6 236.3,112.6 Z M247.5,116.8 C247.5,116.5 247.2,116.2 246.9,116.2 C246.6,116.2 246.3,116.5 246.3,116.8 C246.3,117.1 246.6,117.4 246.9,117.4 C247.2,117.4 247.5,117.1 247.5,116.8 Z M245.5,140.3 C245.5,139.5 244.9,138.9 244.1,138.9 C243.3,138.9 242.7,139.5 242.7,140.3 C242.7,141.1 243.3,141.7 244.1,141.7 C244.9,141.7 245.5,141.1 245.5,140.3 Z M240.8,147.9 C240.8,147.6 240.5,147.3 240.2,147.3 C239.9,147.3 239.6,147.6 239.6,147.9 C239.6,148.3 239.9,148.5 240.2,148.5 C240.6,148.6 240.8,148.3 240.8,147.9 Z M240.1,130.3 C240.1,130 239.9,129.8 239.6,129.8 C239.3,129.8 239.1,130 239.1,130.3 C239.1,130.6 239.3,130.8 239.6,130.8 C239.9,130.8 240.1,130.6 240.1,130.3 Z M227.1,130.3 C227.1,128.9 225.9,127.7 224.5,127.7 C223.1,127.7 221.9,128.9 221.9,130.3 C221.9,131.7 223.1,132.9 224.5,132.9 C226,132.9 227.1,131.7 227.1,130.3 Z M225.1,138.5 C225.1,138.2 224.9,138 224.6,138 C224.3,138 224.1,138.2 224.1,138.5 C224.1,138.8 224.3,139 224.6,139 C224.9,139.1 225.1,138.9 225.1,138.5 Z M168,139.1 C168,138 167.1,137.1 166,137.1 C164.9,137.1 164,138 164,139.1 C164,140.2 164.9,141.1 166,141.1 C167.1,141.1 168,140.2 168,139.1 Z M162.5,128.5 C162.5,128.2 162.3,128 162,128 C161.7,128 161.5,128.2 161.5,128.5 C161.5,128.8 161.7,129 162,129 C162.3,129 162.5,128.8 162.5,128.5 Z" id="Shape" fill="#E7F2FF"></path>
                    <path d="M229.6,32.1 L229.6,38.6 C229.6,41.9 226.9,44.6 223.6,44.6 L220.4,44.6 L216.8,44.6 L196.3,44.6 L192.7,44.6 L189.5,44.6 C186.2,44.6 183.5,41.9 183.5,38.6 L183.5,32.1 C183.5,28.8 186.2,26.1 189.5,26.1 L192.7,26.1 L220.6,26.1 L223.8,26.1 C226.9,26.1 229.6,28.8 229.6,32.1 Z" id="Shape" fill="#F3FCFF"></path>
                    <path d="M224.6,127.7 C226,127.7 227.2,128.9 227.2,130.3 C227.2,131.7 226,132.9 224.6,132.9 C223.2,132.9 222,131.7 222,130.3 C222,128.9 223.1,127.7 224.6,127.7 Z" id="Shape" fill="#E7F2FF"></path>
                    <path d="M224.6,138 C224.9,138 225.1,138.2 225.1,138.5 C225.1,138.8 224.9,139 224.6,139 C224.3,139 224.1,138.8 224.1,138.5 C224,138.3 224.3,138 224.6,138 Z" id="Shape" fill="#A4B2EA"></path>
                    <path d="M216.4,12.6 C219.9,12.6 222.5,15.8 221.8,19.2 L220.4,26 L192.5,26 L191.1,19.2 C190.4,15.8 193,12.6 196.5,12.6 L216.4,12.6 Z" id="Shape" fill="#E7F2FF"></path>
                    <path d="M220.4,44.6 L220.4,57.5 C216,56.4 211.3,55.7 206.5,55.7 C201.7,55.7 197.1,56.3 192.6,57.5 L192.6,45.6 L192.6,44.6 L196.2,44.6 L196.9,48.1 C197.3,49.8 198.8,51.1 200.5,51.1 L206.4,51.1 L212.3,51.1 C214.1,51.1 215.6,49.9 215.9,48.1 L216.6,44.6 L220.4,44.6 Z" id="Shape" fill="#F3FCFF"></path>
                    <path d="M216.8,44.6 L216,48 C215.7,49.7 214.1,51 212.4,51 L206.5,51 L200.6,51 C198.8,51 197.3,49.8 197,48 L196.3,44.5 L216.8,44.5 L216.8,44.6 Z" id="Shape" fill="#E7F2FF"></path>
                    <circle id="Oval" fill="#E7F2FF" cx="166" cy="139.1" r="2"></circle>
                    <path d="M162,128 C162.3,128 162.5,128.2 162.5,128.5 C162.5,128.8 162.3,129 162,129 C161.7,129 161.5,128.8 161.5,128.5 C161.5,128.2 161.7,128 162,128 Z" id="Shape" fill="#A4B2EA"></path>
                    <path d="M88.3,140.5 C88.7,140.5 88.9,140.8 88.9,141.1 C88.9,141.4 88.6,141.7 88.3,141.7 C88,141.7 87.7,141.4 87.7,141.1 C87.7,140.8 87.9,140.5 88.3,140.5 Z" id="Shape" fill="#A4B2EA"></path>
                    <path d="M85.5,3.6 L85.5,3.8 C85.5,5.4 84.2,6.7 82.6,6.7 L30.4,6.7 C28.8,6.7 27.5,5.4 27.5,3.8 L27.5,3.6 C27.5,2 28.8,0.7 30.4,0.7 L82.6,0.7 C84.2,0.7 85.5,2 85.5,3.6 Z" id="Shape" fill="#FFF4C7"></path>
                    <polygon id="Shape" fill="#FFF4C7" points="80.2 12.1 67.2 34.6 45.8 34.6 29.6 6.7 30.4 6.7 82.6 6.7 83.3 6.7"></polygon>
                    <path d="M74.5,40.6 L74.5,44.6 C74.5,47.9 71.8,50.6 68.5,50.6 L62,50.6 L51,50.6 L44.5,50.6 L44.5,50.6 C41.2,50.6 38.5,47.9 38.5,44.6 L38.5,40.6 C38.5,37.3 41.2,34.6 44.5,34.6 L45.8,34.6 L67.3,34.6 L68.6,34.6 C71.8,34.6 74.5,37.3 74.5,40.6 Z" id="Shape" fill="#F3FCFF"></path>
                    <path d="M62,50.6 L62,79.4 C62,81.8 60.1,83.7 57.7,83.7 L56.5,83.7 L55.3,83.7 C52.9,83.7 51,81.8 51,79.4 L51,50.6 L62,50.6 Z" id="Shape" fill="#FFF4C7"></path>
                    <path d="M56.5,83.7 C69.9,105.7 43.1,105.7 56.5,83.7 L56.5,83.7 Z" id="Shape" fill="#FFEEF4"></path>
                    <path d="M48.2,143.9 C49.3,143.9 50.2,144.8 50.2,145.9 C50.2,147 49.3,147.9 48.2,147.9 C47.1,147.9 46.2,147 46.2,145.9 C46.2,144.8 47.1,143.9 48.2,143.9 Z" id="Shape" fill="#FFEEF4"></path>
                    <path d="M44.5,153.4 C44.8,153.4 45,153.6 45,153.9 C45,154.2 44.8,154.4 44.5,154.4 C44.2,154.4 44,154.2 44,153.9 C44,153.6 44.2,153.4 44.5,153.4 Z" id="Shape" fill="#A4B2EA"></path>
                    <path d="M30.6,154.5 C30.9,154.5 31.2,154.8 31.2,155.1 C31.2,155.4 30.9,155.7 30.6,155.7 C30.3,155.7 30,155.4 30,155.1 C30,154.7 30.3,154.5 30.6,154.5 Z" id="Shape" fill="#A4B2EA"></path>
                    <path d="M18.3,142.5 C18.6,142.5 18.8,142.7 18.8,143 C18.8,143.3 18.6,143.5 18.3,143.5 C18,143.5 17.8,143.3 17.8,143 C17.8,142.8 18,142.5 18.3,142.5 Z" id="Shape" fill="#A4B2EA"></path>
                    <circle id="Oval" fill="#FFEEF4" cx="9.8" cy="143.1" r="2.8"></circle>
                    <path d="M109.6,135.3 C117.2,147.3 108.6,163 94.4,163 L18.5,163 C4.3,163 -4.3,147.3 3.3,135.3 L7.3,129.1 L8,129.6 C25.3,141.7 41.8,136.6 56.6,129.7 C75.6,120.7 91.6,108.4 102.8,125.4 L103.2,125.2 L109.6,135.3 Z M88.9,141.1 C88.9,140.8 88.6,140.5 88.3,140.5 C88,140.5 87.7,140.8 87.7,141.1 C87.7,141.4 88,141.7 88.3,141.7 C88.6,141.7 88.9,141.4 88.9,141.1 Z M50.2,145.9 C50.2,144.8 49.3,143.9 48.2,143.9 C47.1,143.9 46.2,144.8 46.2,145.9 C46.2,147 47.1,147.9 48.2,147.9 C49.3,147.9 50.2,147 50.2,145.9 Z M45,153.9 C45,153.6 44.8,153.4 44.5,153.4 C44.2,153.4 44,153.6 44,153.9 C44,154.2 44.2,154.4 44.5,154.4 C44.8,154.5 45,154.2 45,153.9 Z M31.2,155.1 C31.2,154.7 30.9,154.5 30.6,154.5 C30.3,154.5 30,154.8 30,155.1 C30,155.4 30.3,155.7 30.6,155.7 C30.9,155.7 31.2,155.4 31.2,155.1 Z M18.8,143.1 C18.8,142.8 18.6,142.6 18.3,142.6 C18,142.6 17.8,142.8 17.8,143.1 C17.8,143.4 18,143.6 18.3,143.6 C18.6,143.6 18.8,143.4 18.8,143.1 Z M12.6,143.1 C12.6,141.6 11.4,140.3 9.8,140.3 C8.2,140.3 7,141.5 7,143.1 C7,144.7 8.2,145.9 9.8,145.9 C11.4,145.9 12.6,144.6 12.6,143.1 Z" id="Shape" fill="#FFEEF4"></path>
                    <path d="M56.1,128.5 L56.1,128.5 L56.5,129.6 C41.8,136.6 25.3,141.6 7.9,129.5 L7.2,129 L13,119.9 C24,109.4 38.9,120.3 56.1,128.5 Z" id="Shape" fill="#FFEEF4"></path>
                    <path d="M56.5,83.7 L57.7,83.7 C60.1,83.7 62,81.8 62,79.4 L62,50.6 L68.5,50.6 L68.5,65.4 C68.5,68.8 69.5,72.2 71.3,75.1 L103.1,125.1 L102.7,125.3 C91.6,108.4 75.5,120.6 56.5,129.6 L56.1,128.5 L56.1,128.5 C38.8,120.3 24,109.4 13,120 L41.6,75 C43.4,72.1 44.4,68.8 44.4,65.3 L44.4,50.5 L44.4,50.5 L50.9,50.5 L50.9,79.3 C50.9,81.7 52.8,83.6 55.2,83.6 L56.5,83.6 C43.1,105.7 69.9,105.7 56.5,83.7 Z" id="Shape" fill="#F3FCFF"></path>
                </g>
                <g id="shadows_2" fill-rule="nonzero">
                    <path d="M56.1,44.7 L56.1,40.7 C56.1,40.7 56.1,40.7 56.1,40.7 C56.1,39.9 56.8,39.3 57.5,39.3 L76,39.3 L72.1,35 L60.1,35 C60.7,34.8 61.4,34.7 62,34.6 L52.1,34.6 C51.4,34.6 50.7,34.7 50.1,35 L42.2,35 L40,39.3 L44.5,39.3 C45.3,39.3 45.9,39.9 46,40.7 L46,40.7 L46,44.7 C46,48 48.7,50.7 52,50.7 L62,50.7 C58.8,50.7 56.1,48 56.1,44.7 Z" id="Shape" fill="#FFFFFF"></path>
                    <path d="M202.9,37.6 L202.9,33 C202.9,33 202.9,33 202.9,33 C202.9,32.1 203.7,31.4 204.6,31.4 L231.2,31.4 L226.7,26.5 L207.5,26.5 C208.2,26.3 208.9,26.1 209.7,26.1 L198.2,26.1 C197.4,26.1 196.6,26.2 195.9,26.5 L186.8,26.5 L184.3,31.4 L189.5,31.4 C190.4,31.4 191.2,32.1 191.2,33 L191.2,33 L191.2,37.6 C191.2,41.4 194.3,44.5 198.1,44.5 L209.7,44.5 C206,44.6 202.9,41.5 202.9,37.6 Z" id="Shape" fill="#FFFFFF"></path>
                    <path d="M222.4,16.6 L222.4,12.9 L210.7,12.9 C211.4,12.5 212.3,12.3 213.2,12.3 L203.6,12.3 C202.7,12.3 201.9,12.5 201.1,12.9 L193.1,12.9 L193.1,16.6 L196,16.6 C197,16.6 197.8,17.4 197.8,18.3 C197.8,18.6 197.8,18.9 197.9,19.3 L199.3,26.4 L208.9,26.4 L207.5,19.3 C207.5,19.3 207.5,19.3 207.5,19.3 C207.2,17.9 208.4,16.6 209.8,16.6 L222.4,16.6 Z" id="Shape" fill="#FFFFFF" opacity="0.5"></path>
                    <polygon id="Shape" fill="#212121" opacity="0.03" points="81.2 11.5 33.8 11.5 31.4 6.1 84.3 6.1"></polygon>
                    <rect id="Rectangle-path" fill="#212121" opacity="0.08" x="45.5" y="50.6" width="24" height="4.6"></rect>
                    <rect id="Rectangle-path" fill="#212121" opacity="0.05" x="193.6" y="44.6" width="27.6" height="5.4"></rect>
                    <path d="M39.8,89.2 L18.2,122.4 C16.2,125.5 18.4,129.6 22.1,129.6 L34.3,129.6 C38.4,129.6 42,126.8 42.9,122.8 L49.8,94 C50.2,92.2 49.5,90.3 48,89.1 L46.4,87.9 C44.3,86.4 41.3,87 39.8,89.2 Z" id="Shape" fill="#FFFFFF" opacity="0.65"></path>
                    <path d="M5.8,135.3 C-3,155.1 116.6,159.5 83,94.1 C105.7,127.6 113.1,141.1 113.1,141.1 L113.1,149 L102.6,163 L13.7,163 L4.4,154.5 L0.4,144 L5.8,135.3 Z" id="Shape" fill="#212121" opacity="0.03"></path>
                    <path d="M39.5,11.5 L47,25.5 C47.6,26.6 48.8,27.4 50.1,27.4 L50.1,27.4 C52.2,27.4 53.9,25.5 53.6,23.4 L51.9,11.5 L39.5,11.5 Z" id="Shape" fill="#FFFFFF" opacity="0.35"></path>
                    <path d="M85.9,3.6 L85.9,3.7 L33.8,3.7 C32.2,3.7 30.9,5 30.9,6.6 L30.9,6.7 L30.8,6.7 C29.2,6.7 27.9,5.4 27.9,3.8 L27.9,3.6 C27.9,2 29.2,0.7 30.8,0.7 L83,0.7 C84.6,0.7 85.9,2 85.9,3.6 Z" id="Shape" fill="#FFFFFF" opacity="0.5"></path>
                    <path d="M159.2,139.3 C166.3,148.2 250.6,158.8 258.4,104.3 C261,103.7 261.4,98.7 262.1,102.8 C266.1,127 255.3,143.3 244.7,152.3 C232.2,163 227.5,163 227.5,163 L185.4,163 C168.5,157 159.2,139.3 159.2,139.3 Z" id="Shape" fill="#212121" opacity="0.03"></path>
                    <path d="M206.9,108.9 C224,95.4 252.3,95 262,100.9 C255.5,115.3 218.4,114.6 206.9,108.9 Z" id="Shape" fill="#212121" opacity="0.03"></path>
                </g>
                <g id="lines_2" transform="translate(1.000000, 0.000000)" stroke="#D3D5E6" stroke-linecap="round" stroke-linejoin="round">
                    <path d="M68.5,50.6 L44.5,50.6 C41.2,50.6 38.5,47.9 38.5,44.6 L38.5,40.6 C38.5,37.3 41.2,34.6 44.5,34.6 L68.5,34.6 C71.8,34.6 74.5,37.3 74.5,40.6 L74.5,44.6 C74.5,47.9 71.8,50.6 68.5,50.6 Z" id="Shape" stroke-width="3"></path>
                    <path d="M68.5,50.6 L68.5,65.4 C68.5,68.8 69.5,72.2 71.3,75.1 L109.6,135.4 C117.2,147.4 108.6,163.1 94.4,163.1" id="Shape" stroke-width="3"></path>
                    <path d="M18.5,163 C4.3,163 -4.3,147.3 3.3,135.3 L41.6,75 C43.4,72.1 44.4,68.8 44.4,65.3 L44.4,50.5" id="Shape" stroke-width="3"></path>
                    <path d="M13.1,120 C24,109.4 38.9,120.3 56.2,128.5 L56.2,128.5" id="Shape" stroke-width="3"></path>
                    <path d="M220.4,44.6 L220.4,57.4" id="Shape" stroke-width="3"></path>
                    <path d="M192.6,45.4 L192.6,57.4" id="Shape" stroke-width="3"></path>
                    <path d="M189.4,44.6 L223.6,44.6 C226.9,44.6 229.6,41.9 229.6,38.6 L229.6,32.1 C229.6,28.8 226.9,26.1 223.6,26.1 L189.4,26.1 C186.1,26.1 183.4,28.8 183.4,32.1 L183.4,38.6 C183.4,41.9 186.1,44.6 189.4,44.6 Z" id="Shape" stroke-width="3"></path>
                    <path d="M192.5,26.1 L191.1,19.3 C190.4,15.9 193,12.7 196.5,12.7 L216.3,12.7 C219.8,12.7 222.4,15.9 221.7,19.3 L220.3,26.1" id="Shape" stroke-width="3"></path>
                    <path d="M196.2,44.6 L196.9,48.1 C197.2,49.8 198.8,51.1 200.5,51.1 L206.4,51.1 L212.3,51.1 C214.1,51.1 215.6,49.9 215.9,48.1 L216.6,44.6" id="Shape" stroke-width="3"></path>
                    <circle id="Oval" stroke-width="1.5" cx="244.1" cy="140.3" r="1.4"></circle>
                    <circle id="Oval" stroke-width="1.5" cx="9.8" cy="143.1" r="2.8"></circle>
                    <circle id="Oval" stroke-width="1.5" cx="48.2" cy="145.9" r="2"></circle>
                    <circle id="Oval" stroke-width="1.5" cx="166" cy="139.1" r="2"></circle>
                    <circle id="Oval" stroke-width="1.5" cx="88.3" cy="141.1" r="1"></circle>
                    <circle id="Oval" stroke-width="1.5" cx="246.9" cy="116.8" r="1"></circle>
                    <circle id="Oval" stroke-width="1.5" cx="44.5" cy="153.9" r="1"></circle>
                    <circle id="Oval" stroke-width="1.5" cx="18.3" cy="143.1" r="1"></circle>
                    <circle id="Oval" stroke-width="1.5" cx="224.6" cy="138.6" r="1"></circle>
                    <circle id="Oval" stroke-width="1.5" cx="162" cy="128.5" r="1"></circle>
                    <circle id="Oval" stroke-width="1.5" cx="239.6" cy="130.3" r="1"></circle>
                    <circle id="Oval" stroke-width="1.5" cx="30.6" cy="155.1" r="1"></circle>
                    <circle id="Oval" stroke-width="1.5" cx="240.2" cy="147.9" r="1"></circle>
                    <path d="M226.5,163 C247.3,155 262,134.8 262,111.2 C262,80.5 237.2,55.7 206.5,55.7 C175.8,55.7 151,80.5 151,111.2 C151,134.8 165.7,155 186.5,163" id="Shape" stroke-width="3"></path>
                    <polyline id="Shape" stroke-width="3" points="45.8 34.6 29.6 6.7 83.3 6.7 67.2 34.6"></polyline>
                    <path d="M82.6,0.7 L30.4,0.7 C28.8,0.7 27.5,2 27.5,3.6 L27.5,3.8 C27.5,5.4 28.8,6.7 30.4,6.7 L82.6,6.7 C84.2,6.7 85.5,5.4 85.5,3.8 L85.5,3.6 C85.5,2 84.2,0.7 82.6,0.7 Z" id="Shape" stroke-width="3"></path>
                    <path d="M57.7,83.7 L55.3,83.7 C52.9,83.7 51,81.8 51,79.4 L51,50.6 L62,50.6 L62,79.4 C62,81.8 60.1,83.7 57.7,83.7 Z" id="Shape" stroke-width="3"></path>
                    <path d="M56.5,83.7 C43.1,105.7 69.9,105.7 56.5,83.7" id="Shape" stroke-width="3"></path>
                    <path d="M8,129.5 C47.7,157.1 82.9,95.1 102.7,125.2" id="Shape" stroke-width="3"></path>
                    <path d="M243.7,110.9 C244,111.4 244.1,112 244.1,112.6 C244.1,114.7 242.4,116.5 240.2,116.5 C238.1,116.5 236.3,114.8 236.3,112.6 C236.3,112.6 236.3,112.5 236.3,112.5" id="Shape" stroke-width="1.5"></path>
                    <circle id="Oval" stroke-width="1.5" cx="224.6" cy="130.3" r="2.6"></circle>
                    <path d="M151.1,108.3 C170.5,101 185.2,101.3 209.4,110.1 C218.2,113.3 227.7,113.8 236.4,112.5 C239,112.1 241.5,111.6 244,110.9 C251.1,108.9 257.2,105.8 261.3,102.1" id="Shape" stroke-width="3"></path>
                    <path d="M205.9,108.9 C225.8,94 249.1,96 260.6,98.8" id="Shape" stroke-width="3"></path>
                    <path d="M80.2,12.1 L55.9,12.1" id="Shape" stroke-width="1.5"></path>
                    <path d="M238,82.5 L243.5,87.9" id="Shape" stroke-width="1.5"></path>
                    <path d="M235.6,74.7 L243.7,82.9" id="Shape" stroke-width="1.5"></path>
                    <circle id="Oval" stroke-width="1.49995708" transform="translate(206.379480, 129.696100) rotate(-70.207809) translate(-206.379480, -129.696100) " cx="206.37948" cy="129.6961" r="1.39995994"></circle>
                    <circle id="Oval" stroke-width="1.49995708" transform="translate(205.597390, 118.715880) rotate(-70.207809) translate(-205.597390, -118.715880) " cx="205.59739" cy="118.71588" r="1"></circle>
                    <circle id="Oval" stroke-width="1.5" cx="214.6" cy="148.6" r="1"></circle>
                    <circle id="Oval" stroke-width="1.5" cx="184.6" cy="138.6" r="1"></circle>
                    <circle id="Oval" stroke-width="1.5" cx="184.6" cy="108.6" r="1"></circle>
                    <circle id="Oval" stroke-width="1.5" cx="104.6" cy="138.6" r="1"></circle>
                </g>
            </g>
            <g id="main">
                <g id="colors_1_" transform="translate(77.000000, 0.000000)" fill-rule="nonzero">
                    <path d="M166,234.6 L166,234.9 L0,234.9 L0,234.6 C0,227 6.1,220.9 13.7,220.9 L14,220.9 L22,220.9 L144,220.9 L152,220.9 L152.3,220.9 C159.9,221 166,227.1 166,234.6 Z" id="Shape" fill="#19D2FF"></path>
                    <path d="M160.7,132 C163.6,132 166,134.2 166,137 C166,138.4 165.4,139.6 164.5,140.5 C163.5,141.4 162.2,142 160.8,142 L152,142 L147,142 L144,142 L134,142 L112,142 L94,142 L72,142 L54,142 L32,142 L22,142 L14,142 L5,142 C2.2,142 0,139.8 0,137 C0,135.6 0.6,134.4 1.5,133.5 C2.4,132.6 3.7,132 5,132 L14,132 L22,132 L32,132 L54,132 L72,132 L94,132 L112,132 L134,132 L144,132 L147,132 L152,132 L160.7,132 Z" id="Shape" fill="#19D2FF"></path>
                    <polygon id="Shape" fill="#19D2FF" points="152 142 152 221 144 221 144 142 147 142"></polygon>
                    <path d="M152,128.3 L152,132 L147,132 L144,132 L144,128.3 C144,126.1 145.8,124.3 148,124.3 C150.2,124.3 152,126.1 152,128.3 Z" id="Shape" fill="#19D2FF"></path>
                    <path d="M137.7,115 C138.5,115.8 139,116.9 139,118.2 C139,120.7 137,122.7 134.5,122.7 L134,122.7 L112,122.7 L111.5,122.7 C110.3,122.7 109.1,122.2 108.3,121.4 C107.5,120.6 107,119.5 107,118.2 C107,115.7 109,113.7 111.5,113.7 L134.5,113.7 C135.7,113.7 136.9,114.2 137.7,115 Z" id="Shape" fill="#ECF7FF"></path>
                    <path d="M134,166.1 L134,199.7 C134,205.8 129.1,210.7 123,210.7 C116.9,210.7 112,205.8 112,199.7 L112,167.8 C120.1,164.1 125.2,172.9 134,166.1 Z M122,178.6 C122,177.4 121,176.4 119.8,176.4 C118.6,176.4 117.6,177.4 117.6,178.6 C117.6,179.8 118.6,180.8 119.8,180.8 C121,180.8 122,179.8 122,178.6 Z" id="Shape" fill="url(#linearGradient-1)"></path>
                    <path d="M134,142 L134,166.1 C125.2,172.9 120.1,164.1 112,167.7 L112,142 L134,142 Z" id="Shape" fill="#ECF7FF"></path>
                    <rect id="Rectangle-path" fill="#ECF7FF" x="112" y="122.7" width="22" height="9.3"></rect>
                    <path d="M119.8,176.3 C121,176.3 122,177.3 122,178.5 C122,179.7 121,180.7 119.8,180.7 C118.6,180.7 117.6,179.7 117.6,178.5 C117.5,177.3 118.5,176.3 119.8,176.3 Z" id="Shape" fill="url(#linearGradient-2)"></path>
                    <path d="M105.4,19.8 C106.9,19.8 108.1,21 108.1,22.5 C108.1,24 106.9,25.2 105.4,25.2 C103.9,25.2 102.7,24 102.7,22.5 C102.7,21.1 103.9,19.8 105.4,19.8 Z" id="Shape" stroke="#D3D5E6" stroke-width="1.5" fill="#D2EFFC" stroke-linecap="round" stroke-linejoin="round"></path>
                    <path d="M93.2,34.1 C94,33.9 94.7,33.9 95.5,33.9 C102.5,33.9 108.1,39.5 108.1,46.5 C108.1,52.7 103.7,57.8 97.8,58.9 C97.9,59.5 98,60.2 98,60.9 C98,65.9 93.9,70 88.9,70 C84.9,70 81.5,67.4 80.3,63.8 C78,66.1 74.9,67.6 71.4,67.6 C64.5,67.6 58.9,62 58.9,55.1 C58.9,49.8 62.2,45.2 66.9,43.4 C62.7,40.3 59.9,35.3 59.9,29.7 C59.9,20.4 67.5,12.8 76.8,12.8 C86.1,12.8 93.7,20.4 93.7,29.7 C93.8,31.1 93.6,32.6 93.2,34.1 Z" id="Shape" stroke="#D3D5E6" stroke-width="1.5" fill="#D2F3FF" stroke-linecap="round" stroke-linejoin="round"></path>
                    <path d="M97.7,115 C98.5,115.8 99,116.9 99,118.2 C99,120.7 97,122.7 94.5,122.7 L94,122.7 L72,122.7 L71.5,122.7 C70.3,122.7 69.1,122.2 68.3,121.4 C67.5,120.6 67,119.5 67,118.2 C67,115.7 69,113.7 71.5,113.7 L94.5,113.7 C95.7,113.7 96.9,114.2 97.7,115 Z" id="Shape" fill="#ECF7FF"></path>
                    <circle id="Oval" stroke="#D3D5E6" stroke-width="1.5" fill="#D2EFFC" stroke-linecap="round" stroke-linejoin="round" cx="91.9" cy="84.1" r="4.3"></circle>
                    <path d="M94,182 L94,197.4 C94,205.8 89.1,210.7 83,210.7 C76.9,210.7 72,205.8 72,199.7 L72,181.3 C81.2,173.4 86.2,190 94,182 Z" id="Shape" fill="url(#linearGradient-3)"></path>
                    <path d="M94,142 L94,182 C86.2,190 81.2,173.4 72,181.3 L72,142 L94,142 Z" id="Shape" fill="#ECF7FF"></path>
                    <rect id="Rectangle-path" fill="#ECF7FF" x="72" y="122.7" width="22" height="9.3"></rect>
                    <path d="M82,0.7 C83.1,0.7 84,1.6 84,2.7 C84,3.8 83.1,4.7 82,4.7 C80.9,4.7 80,3.8 80,2.7 C80,1.6 80.9,0.7 82,0.7 Z" id="Shape" stroke="#D3D5E6" stroke-width="1.5" fill="#D2EFFC" stroke-linecap="round" stroke-linejoin="round"></path>
                    <path d="M75.4,87.3 C76.9,87.3 78.1,88.5 78.1,90 C78.1,91.5 76.9,92.7 75.4,92.7 C73.9,92.7 72.7,91.5 72.7,90 C72.7,88.6 73.9,87.3 75.4,87.3 Z" id="Shape" stroke="#D3D5E6" stroke-width="1.5" fill="#D2EFFC" stroke-linecap="round" stroke-linejoin="round"></path>
                    <path d="M57.7,115 C58.5,115.8 59,116.9 59,118.2 C59,120.7 57,122.7 54.5,122.7 L54,122.7 L32,122.7 L31.5,122.7 C30.3,122.7 29.1,122.2 28.3,121.4 C27.5,120.6 27,119.5 27,118.2 C27,115.7 29,113.7 31.5,113.7 L54.5,113.7 C55.7,113.7 56.9,114.2 57.7,115 Z" id="Shape" fill="#ECF7FF"></path>
                    <path d="M54,191.3 L54,199.7 C54,205.8 49.1,210.7 43,210.7 C36.9,210.7 32,205.8 32,199.7 L32,159.1 C40.8,165.9 45.9,157.1 54,160.7 L54,191.3 C54,190 52.9,188.9 51.6,188.9 C50.3,188.9 49.2,190 49.2,191.3 C49.2,192.6 50.3,193.7 51.6,193.7 C52.9,193.6 54,192.6 54,191.3 Z M48.2,171.5 C48.2,170.4 47.3,169.6 46.3,169.6 C45.2,169.6 44.4,170.5 44.4,171.5 C44.4,172.5 45.3,173.4 46.3,173.4 C47.4,173.4 48.2,172.5 48.2,171.5 Z" id="Shape" fill="url(#linearGradient-4)"></path>
                    <path d="M54,142 L54,160.8 C45.9,157.2 40.8,165.9 32,159.2 L32,142 L54,142 Z" id="Shape" fill="#ECF7FF"></path>
                    <rect id="Rectangle-path" fill="#ECF7FF" x="32" y="122.7" width="22" height="9.3"></rect>
                    <path d="M51.6,188.9 C52.9,188.9 54,190 54,191.3 C54,192.6 52.9,193.7 51.6,193.7 C50.3,193.7 49.2,192.6 49.2,191.3 C49.2,190 50.3,188.9 51.6,188.9 Z" id="Shape" fill="url(#linearGradient-5)"></path>
                    <path d="M48.5,90.8 C49.6,90.8 50.5,91.7 50.5,92.8 C50.5,93.9 49.6,94.8 48.5,94.8 C47.4,94.8 46.5,93.9 46.5,92.8 C46.5,91.7 47.4,90.8 48.5,90.8 Z" id="Shape" stroke="#D3D5E6" stroke-width="1.5" fill="#D2EFFC" stroke-linecap="round" stroke-linejoin="round"></path>
                    <circle id="Oval" fill="url(#linearGradient-6)" cx="46.3" cy="171.5" r="1.9"></circle>
                    <rect id="Rectangle-path" fill="#19D2FF" x="14" y="142" width="8" height="79"></rect>
                    <path d="M22,128.3 L22,132 L14,132 L14,128.3 C14,126.1 15.8,124.3 18,124.3 C20.2,124.3 22,126.1 22,128.3 Z" id="Shape" fill="#19D2FF"></path>
                </g>
                <g id="shadows" transform="translate(76.000000, 12.000000)" fill-rule="nonzero">
                    <rect id="Rectangle-path" fill="#212121" opacity="0.2" x="33.3" y="110.6" width="21.7" height="4.6"></rect>
                    <rect id="Rectangle-path" fill="#212121" opacity="0.2" x="73.2" y="110.6" width="21.7" height="4.6"></rect>
                    <rect id="Rectangle-path" fill="#212121" opacity="0.2" x="113.2" y="110.6" width="21.7" height="4.7"></rect>
                    <rect id="Rectangle-path" fill="#212121" opacity="0.25" x="15" y="130" width="8" height="4.3"></rect>
                    <rect id="Rectangle-path" fill="#212121" opacity="0.25" x="145" y="130" width="8" height="4.3"></rect>
                    <path d="M37.7,107.8 L37.7,105.9 C37.7,105.9 37.7,105.9 37.7,105.9 C37.7,105.5 38,105.2 38.4,105.2 L59.6,105.2 L57.6,103.2 L39.7,103.2 C40,103.1 40.3,103 40.7,103 L35.6,103 C35.2,103 34.9,103.1 34.6,103.2 L30.6,103.2 L29.5,105.2 L31.8,105.2 C32.2,105.2 32.5,105.5 32.6,105.9 L32.6,105.9 L32.6,107.8 C32.6,109.4 34,110.7 35.7,110.7 L40.9,110.7 C39.1,110.6 37.7,109.4 37.7,107.8 Z" id="Shape" fill="#FFFFFF"></path>
                    <path d="M77.7,107.8 L77.7,105.9 C77.7,105.9 77.7,105.9 77.7,105.9 C77.7,105.5 78,105.2 78.4,105.2 L99.6,105.2 L97.6,103.2 L79.7,103.2 C80,103.1 80.3,103 80.7,103 L75.6,103 C75.2,103 74.9,103.1 74.6,103.2 L70.6,103.2 L69.5,105.2 L71.8,105.2 C72.2,105.2 72.5,105.5 72.6,105.9 L72.6,105.9 L72.6,107.8 C72.6,109.4 74,110.7 75.7,110.7 L80.9,110.7 C79.1,110.6 77.7,109.4 77.7,107.8 Z" id="Shape" fill="#FFFFFF"></path>
                    <path d="M117.4,107.8 L117.4,105.9 C117.4,105.9 117.4,105.9 117.4,105.9 C117.4,105.5 117.7,105.2 118.1,105.2 L139.3,105.2 L137.3,103.2 L119.4,103.2 C119.7,103.1 120,103 120.4,103 L115.3,103 C114.9,103 114.6,103.1 114.3,103.2 L110.3,103.2 L109.2,105.2 L111.5,105.2 C111.9,105.2 112.2,105.5 112.3,105.9 L112.3,105.9 L112.3,107.8 C112.3,109.4 113.7,110.7 115.4,110.7 L120.6,110.7 C118.8,110.6 117.4,109.4 117.4,107.8 Z" id="Shape" fill="#FFFFFF"></path>
                    <g id="Group" opacity="0.25" transform="translate(68.000000, 0.000000)" fill="#212121">
                        <path d="M16,19.7 C16,19.7 16,19.9 16,19.9 C16,19.9 16,19.9 16,19.9 L16,19.7 Z" id="Shape" opacity="0.2"></path>
                        <path d="M14.6,54 L14.6,54 C14.6,54 14.6,54 14.6,54 L14.6,54 C14.6,54 14.6,54 14.6,54 L14.6,54 C14.6,54.1 14.6,54.1 14.6,54 C14.7,54.1 14.7,54.1 14.6,54 C14.7,54 14.6,54 14.6,54 Z" id="Shape" opacity="0.2"></path>
                        <path d="M41.2,34.4 C41.2,34 41.2,33.5 41.1,33.1 C41.1,32.7 41,32.3 40.9,31.9 C40.8,31.4 40.7,30.9 40.5,30.5 C40.4,30.3 40.4,30.2 40.3,30 C40,29.1 39.6,28.3 39.1,27.6 C39,27.4 38.9,27.2 38.7,27.1 C38.5,26.9 38.3,26.6 38.1,26.4 C38,26.2 37.8,26.1 37.7,25.9 C37,25.2 36.3,24.6 35.5,24 C35.2,23.8 34.8,23.6 34.5,23.4 C34.2,23.2 33.8,23 33.5,22.9 C33.5,22.9 33.5,22.9 33.5,22.9 C33.1,22.7 32.8,22.6 32.4,22.5 C32.2,22.4 32,22.4 31.8,22.3 C31.6,22.2 31.4,22.2 31.2,22.2 C31.1,22.2 30.9,22.1 30.8,22.1 C30.7,22.1 30.6,22.1 30.6,22.1 C30.4,22.1 30.2,22 30,22 C29.8,22 29.6,22 29.4,21.9 C29.1,21.9 28.8,21.9 28.5,21.9 C27.7,21.9 26.9,22 26.2,22.1 C26.3,21.8 26.4,21.5 26.4,21.2 C26.6,20.5 26.7,19.7 26.7,18.9 C26.7,18.5 26.8,18 26.8,17.6 C26.8,8.3 19.2,0.7 9.9,0.7 C6.2,0.7 2.8,1.9 0.1,3.8 C1.6,3.2 3.2,2.8 4.9,2.8 C11.6,2.8 17,8.2 17,14.9 C17,16.6 16.7,18.5 16.1,19.9 L16.1,19.9 L16.1,19.9 C15.2,20.8 14.6,21.8 14.1,23 C13.8,23.9 13.6,24.9 13.6,25.9 C13.6,28 14.4,29.9 15.6,31.4 C15.1,32.1 14.8,33 14.8,34 C14.8,36.6 16.9,38.7 19.5,38.7 C22.6,39.1 25.2,41.3 26.2,44.2 C26.5,45 26.6,45.9 26.6,46.8 C26.6,51.3 22.9,55 18.4,55 C17,55 15.7,54.7 14.6,54.1 C14.8,54.3 14.9,54.6 15.1,54.8 C15.2,54.9 15.2,55 15.3,55 C15.4,55.1 15.5,55.2 15.6,55.3 C15.8,55.5 15.9,55.6 16.1,55.8 C16.2,55.9 16.4,56 16.5,56.1 C16.7,56.3 17,56.5 17.3,56.6 C17.5,56.7 17.8,56.8 18,57 C18.2,57.1 18.3,57.2 18.5,57.2 C19.2,57.5 19.9,57.7 20.7,57.8 C20.9,57.8 21,57.8 21.2,57.9 C21.3,57.9 21.4,57.9 21.5,57.9 C21.7,57.9 21.9,57.9 22,57.9 C27,57.9 31.1,53.8 31.1,48.8 C31.1,48.1 31,47.4 30.9,46.8 C36.8,45.7 41.2,40.6 41.2,34.4 Z" id="Shape" opacity="0.2"></path>
                    </g>
                    <ellipse id="Oval" fill="#FFFFFF" opacity="0.5" transform="translate(71.971310, 12.091610) rotate(-45.000000) translate(-71.971310, -12.091610) " cx="71.97131" cy="12.09161" rx="6.99993287" ry="4.59995589"></ellipse>
                    <ellipse id="Oval" fill="#FFFFFF" opacity="0.5" transform="translate(68.783910, 38.318050) rotate(-45.000000) translate(-68.783910, -38.318050) " cx="68.78391" cy="38.31805" rx="4.69995493" ry="3.19996931"></ellipse>
                    <circle id="Oval" fill="#FFFFFF" opacity="0.5" cx="87.5" cy="46.8" r="3"></circle>
                    <circle id="Oval" fill="#FFFFFF" opacity="0.75" cx="92.3" cy="71.3" r="1.8"></circle>
                    <circle id="Oval" fill="#FFFFFF" opacity="0.75" cx="76" cy="77.8" r="1"></circle>
                    <g id="Group" opacity="0.06" transform="translate(33.000000, 172.000000)" fill="#212121">
                        <path d="M1,11.8 C1,20.6 20.5,20.9 20.5,0.7 C20.5,27.8 23.6,22.2 14.3,26.2 C7.4,29.1 0.5,27.1 1,11.8 Z" id="Shape"></path>
                        <path d="M41,11.8 C41,20.6 60.5,20.9 60.5,0.7 C60.5,27.8 63.6,22.2 54.3,26.2 C47.4,29.1 40.5,27.1 41,11.8 Z" id="Shape"></path>
                        <path d="M81,11.8 C81,20.6 100.5,20.9 100.5,0.7 C100.5,27.8 103.6,22.2 94.3,26.2 C87.4,29.1 80.5,27.1 81,11.8 Z" id="Shape"></path>
                    </g>
                    <rect id="Rectangle-path" fill="#212121" opacity="0.2" x="33" y="129.4" width="22.5" height="5.5"></rect>
                    <rect id="Rectangle-path" fill="#212121" opacity="0.2" x="73" y="129.4" width="22.5" height="5.5"></rect>
                    <rect id="Rectangle-path" fill="#212121" opacity="0.2" x="113" y="129.4" width="22.5" height="5.5"></rect>
                    <path d="M21.1,113.6 C19.6,114.2 18.6,115.6 18.6,117.3 L18.6,121 L15.6,121 L15.6,117.3 C15.6,115.1 17.4,113.3 19.6,113.3 C20.1,113.3 20.6,113.4 21.1,113.6 Z" id="Shape" fill="#FFFFFF" opacity="0.5"></path>
                    <path d="M151.2,113.6 C149.7,114.2 148.7,115.6 148.7,117.3 L148.7,121 L145.7,121 L145.7,117.3 C145.7,115.1 147.5,113.3 149.7,113.3 C150.3,113.3 150.8,113.4 151.2,113.6 Z" id="Shape" fill="#FFFFFF" opacity="0.5"></path>
                    <path d="M165.8,123.6 L164.1,121.6 C164.9,122.1 165.5,122.8 165.8,123.6 Z" id="Shape" fill="#FFFFFF" opacity="0.5"></path>
                    <path d="M167,125 L165.1,129.4 L115.9,131.1 L115.9,130 C134,130 139.4,127.1 140.9,123.6 L164,123.6 C164.7,123.6 165.4,123.7 166,124 C166,123.9 165.9,123.8 165.9,123.7 L167,125 Z" id="Shape" fill="#212121" opacity="0.08"></path>
                    <path d="M3.6,130.3 C1.7,129.6 0.3,127.8 0.3,125.6 C0.3,124.2 0.9,123 1.8,122.1 C2.7,121.2 4,120.6 5.3,120.6 L14.3,120.6 L147.3,120.6 L161,120.6 C163.3,120.6 165.3,122 166,124 C165.4,123.8 164.7,123.6 164,123.6 L150.3,123.6 L17.3,123.6 L8.3,123.6 C6.9,123.6 5.7,124.2 4.8,125.1 C3.9,126 3.3,127.3 3.3,128.6 C3.3,129.2 3.4,129.8 3.6,130.3 Z" id="Shape" fill="#FFFFFF" opacity="0.5"></path>
                    <path d="M15,195.7 C15,200.5 23.5,197.5 23.5,181.7 C23.5,207.1 23.5,209 23.5,209 L15,209 L15,195.7 Z" id="Shape" fill="#212121" opacity="0.1"></path>
                    <path d="M42.9,115.2 L37,115.2 L37,119.1 C37,120.7 42.9,120.7 42.9,119.1 L42.9,115.2 Z" id="Shape" fill="#FFFFFF" opacity="0.5"></path>
                    <path d="M82.9,115.2 L77,115.2 L77,119.1 C77,120.7 82.9,120.7 82.9,119.1 L82.9,115.2 Z" id="Shape" fill="#FFFFFF" opacity="0.5"></path>
                    <path d="M122.9,115.2 L117,115.2 L117,119.1 C117,120.7 122.9,120.7 122.9,119.1 L122.9,115.2 Z" id="Shape" fill="#FFFFFF" opacity="0.5"></path>
                    <path d="M144.8,195.7 C144.8,200.5 153.3,197.5 153.3,181.7 C153.3,207.1 153.3,209 153.3,209 L144.8,209 L144.8,195.7 Z" id="Shape" fill="#212121" opacity="0.1"></path>
                    <path d="M166.2,222.4 L100.7,222.4 C118.6,222.4 121.7,213 121.7,213 L156.1,213 C158.6,213 161,213.8 162.9,215.2 C162.4,214.4 161.9,213.7 161.2,213 L163.4,213 L166.2,222.4 Z" id="Shape" fill="#212121" opacity="0.1"></path>
                    <path d="M163,215.2 C161,213.8 158.7,213 156.2,213 L22.2,213 C16.4,213 11.6,217.2 10.1,223 L2,223 L2,222.7 C2,215.1 7.6,209 14.5,209 L152.5,209 C156.9,209 160.8,211.4 163,215.2 Z" id="Shape" fill="#FFFFFF" opacity="0.5"></path>
                </g>
                <g id="lines" stroke="#484D78" stroke-linecap="round" stroke-linejoin="round">
                    <g id="Group" transform="translate(0.000000, 235.000000)" stroke-width="4">
                        <path d="M296.8,0 L8.2,0" id="Shape"></path>
                        <polyline id="Shape" points="0.5 0 0.6 0 0.8 0"></polyline>
                        <path d="M319.2,0 L304.8,0" id="Shape"></path>
                    </g>
                    <path d="M229.3,221 L90.7,221 C83.1,221 77,227.1 77,234.7 L77,235 L243,235 L243,234.7 C243,227.1 236.9,221 229.3,221 Z" id="Shape" stroke-width="4"></path>
                    <path d="M99,128.3 L99,132 L91,132 L91,128.3 C91,126.1 92.8,124.3 95,124.3 C97.2,124.3 99,126.1 99,128.3 Z" id="Shape" stroke-width="4"></path>
                    <rect id="Rectangle-path" stroke-width="4" x="91" y="142" width="8" height="79"></rect>
                    <g id="XMLID_1_" transform="translate(221.000000, 142.000000)" stroke-width="4">
                        <polyline id="Shape" points="0 0 0 79 8 79 8 0"></polyline>
                    </g>
                    <path d="M221,132 L221,128.3 C221,126.1 222.8,124.3 225,124.3 C227.2,124.3 229,126.1 229,128.3 L229,132" id="Shape" stroke-width="4"></path>
                    <path d="M91,142 L82,142 C79.2,142 77,139.8 77,137 C77,135.6 77.6,134.4 78.5,133.5 C79.4,132.6 80.7,132 82,132 L91,132" id="Shape" stroke-width="4"></path>
                    <polyline id="Shape" stroke-width="4" points="149 132 149 122.7 171 122.7 171 132"></polyline>
                    <path d="M171,142 L171,197.4 C171,205.8 166.1,210.7 160,210.7 C153.9,210.7 149,205.8 149,199.7 L149,142" id="Shape" stroke-width="4"></path>
                    <polyline id="Shape" stroke-width="4" points="109 132 109 122.7 131 122.7 131 132"></polyline>
                    <path d="M131,142 L131,199.7 C131,205.8 126.1,210.7 120,210.7 C113.9,210.7 109,205.8 109,199.7 L109,142" id="Shape" stroke-width="4"></path>
                    <polyline id="Shape" stroke-width="4" points="189 132 189 122.7 211 122.7 211 132"></polyline>
                    <path d="M211,142 L211,199.7 C211,205.8 206.1,210.7 200,210.7 C193.9,210.7 189,205.8 189,199.7 L189,142" id="Shape" stroke-width="4"></path>
                    <path d="M131.5,113.7 L108.5,113.7 C106,113.7 104,115.7 104,118.2 L104,118.2 C104,120.7 106,122.7 108.5,122.7 L131.5,122.7 C134,122.7 136,120.7 136,118.2 L136,118.2 C136,115.7 134,113.7 131.5,113.7 Z" id="Shape" stroke-width="4"></path>
                    <path d="M171.5,113.7 L148.5,113.7 C146,113.7 144,115.7 144,118.2 L144,118.2 C144,120.7 146,122.7 148.5,122.7 L171.5,122.7 C174,122.7 176,120.7 176,118.2 L176,118.2 C176,115.7 174,113.7 171.5,113.7 Z" id="Shape" stroke-width="4"></path>
                    <path d="M211.5,113.7 L188.5,113.7 C186,113.7 184,115.7 184,118.2 L184,118.2 C184,120.7 186,122.7 188.5,122.7 L211.5,122.7 C214,122.7 216,120.7 216,118.2 L216,118.2 C216,115.7 214,113.7 211.5,113.7 Z" id="Shape" stroke-width="4"></path>
                    <path d="M204.5,188.5 L204.6,188.5" id="Shape" stroke-width="3" fill="#6A77C6" fill-rule="nonzero"></path>
                    <path d="M155.1,194.5 L155.2,194.5" id="Shape" stroke-width="3" fill="#6A77C6" fill-rule="nonzero"></path>
                    <path d="M115.7,201.8 L115.8,201.8" id="Shape" stroke-width="3" fill="#6A77C6" fill-rule="nonzero"></path>
                    <path d="M163.4,100.2 L163.5,100.2" id="Shape" stroke-width="4" fill="#6A77C6" fill-rule="nonzero"></path>
                    <path d="M130.4,41.8 L130.5,41.8" id="Shape" stroke-width="4" fill="#6A77C6" fill-rule="nonzero"></path>
                    <circle id="Oval" stroke-width="2" cx="196.8" cy="178.6" r="2.2"></circle>
                    <circle id="Oval" stroke-width="2" cx="123.3" cy="171.5" r="1.9"></circle>
                    <circle id="Oval" stroke-width="2" cx="128.6" cy="191.3" r="2.4"></circle>
                    <circle id="Oval" stroke-width="2" cx="168.9" cy="84.1" r="4.3"></circle>
                    <circle id="Oval" stroke-width="2" cx="152.4" cy="90.1" r="2.7"></circle>
                    <circle id="Oval" stroke-width="2" cx="125.5" cy="92.8" r="2"></circle>
                    <circle id="Oval" stroke-width="2" cx="159" cy="2.7" r="2"></circle>
                    <circle id="Oval" stroke-width="2" cx="182.4" cy="22.6" r="2.7"></circle>
                    <path d="M91,142 L224,142 L224,142 L237.7,142 C239.2,142 240.5,141.4 241.4,140.5 C242.3,139.6 242.9,138.3 242.9,137 C242.9,134.2 240.5,132 237.6,132 L224,132 L224,132 L91,132" id="Shape" stroke-width="4"></path>
                    <path d="M172.8,229 L167,229" id="Shape" stroke-width="2"></path>
                    <path d="M241.3,229 L177.7,229" id="Shape" stroke-width="2"></path>
                    <path d="M166,35.7 C167.3,34.9 168.7,34.3 170.2,34.1 C171,33.9 171.7,33.9 172.5,33.9 C179.5,33.9 185.1,39.5 185.1,46.5 C185.1,52.7 180.7,57.8 174.8,58.9" id="Shape" stroke-width="4"></path>
                    <path d="M144,43.3 C139.8,40.2 137,35.2 137,29.6 C137,20.3 144.6,12.7 153.9,12.7 C163.2,12.7 170.8,20.3 170.8,29.6 C170.8,31.2 170.6,32.7 170.2,34.1" id="Shape" stroke-width="4"></path>
                    <path d="M148.5,42.4 C146.9,42.4 145.4,42.7 144,43.2 C139.3,45 136,49.6 136,54.9 C136,61.8 141.6,67.4 148.5,67.4 C152,67.4 155.2,66 157.4,63.6" id="Shape" stroke-width="4"></path>
                    <path d="M174.9,58.8 C175,59.4 175.1,60.1 175.1,60.8 C175.1,65.8 171,69.9 166,69.9 C161,69.9 156.9,65.8 156.9,60.8" id="Shape" stroke-width="4"></path>
                    <path d="M189,167.8 C197.1,164.2 202.2,172.9 211,166.2" id="Shape" stroke-width="4"></path>
                    <path d="M149,181.3 C158.2,173.4 163.2,190 171,182" id="Shape" stroke-width="4"></path>
                    <path d="M131,160.8 C122.9,157.2 117.8,165.9 109,159.2" id="Shape" stroke-width="4"></path>
                    <path d="M85.9,229 C85.1,230.7 84.6,232.6 84.6,234.7" id="Shape" stroke-width="2"></path>
                </g>
                <g id="top_lights" transform="translate(113.000000, 146.000000)" fill-rule="nonzero" fill="#FFFFFF" opacity="0.5">
                    <path d="M5.9,0.9 L0,0.9 L0,40.8 C0,42.4 1.3,43.7 2.9,43.7 L2.9,43.7 C4.5,43.7 5.8,42.4 5.8,40.8 L5.8,0.9 L5.9,0.9 Z" id="Shape"></path>
                    <path d="M45.9,0.9 L40,0.9 L40,40.8 C40,42.4 41.3,43.7 42.9,43.7 L42.9,43.7 C44.5,43.7 45.8,42.4 45.8,40.8 L45.8,0.9 L45.9,0.9 Z" id="Shape"></path>
                    <path d="M85.9,0.9 L80,0.9 L80,40.8 C80,42.4 81.3,43.7 82.9,43.7 L82.9,43.7 C84.5,43.7 85.8,42.4 85.8,40.8 L85.8,0.9 L85.9,0.9 Z" id="Shape"></path>
                </g>
            </g>
        </g>
    </g>
</svg>