<?xml version="1.0" encoding="UTF-8"?>
<svg width="279px" height="199px" viewBox="0 0 279 199" version="1.1" xmlns="http://www.w3.org/2000/svg" xmlns:xlink="http://www.w3.org/1999/xlink">
    <!-- Generator: Sketch 45.2 (43514) - http://www.bohemiancoding.com/sketch -->
    <title>microscope</title>
    <desc>Created with Sketch.</desc>
    <defs>
        <linearGradient x1="7.98659091%" y1="19.8767932%" x2="92.6456818%" y2="110.066667%" id="linearGradient-1">
            <stop stop-color="#FF7163" offset="0%"></stop>
            <stop stop-color="#FF4726" offset="100%"></stop>
        </linearGradient>
        <linearGradient x1="33.5905557%" y1="-0.743022068%" x2="67.3750648%" y2="101.363118%" id="linearGradient-2">
            <stop stop-color="#19FFF4" offset="0%"></stop>
            <stop stop-color="#009DFF" offset="100%"></stop>
        </linearGradient>
    </defs>
    <g id="Page-1" stroke="none" stroke-width="1" fill="none" fill-rule="evenodd">
        <g id="microscope" transform="translate(-5.000000, 2.000000)">
            <g id="bg" transform="translate(21.000000, 74.000000)">
                <g id="colors_1_" fill-rule="nonzero">
                    <path d="M235.3,27.7 C237.8,27.7 239.8,29.7 239.8,32.2 C239.8,33.4 239.3,34.6 238.5,35.4 C237.7,36.2 236.6,36.7 235.3,36.7 L227.2,36.7 L220,36.7 L208.8,36.7 L189,36.7 L178,36.7 L170.8,36.7 L162.7,36.7 C160.2,36.7 158.2,34.7 158.2,32.2 C158.2,31 158.7,29.8 159.5,29 C160.3,28.2 161.4,27.7 162.7,27.7 L170.8,27.7 L178,27.7 L189.1,27.7 L208.9,27.7 L220,27.7 L227.2,27.7 L235.3,27.7 Z" id="Shape" fill="#FFF8E7"></path>
                    <path d="M227.5,107.7 C234.3,107.7 239.8,113.2 239.8,120 L239.8,120.3 L158.1,120.3 L158.1,120 C158.1,113.2 163.6,107.7 170.4,107.7 L170.7,107.7 L177.9,107.7 L220,107.7 L227.2,107.7 L227.5,107.7 Z" id="Shape" fill="#FFF8E7"></path>
                    <rect id="Rectangle-path" fill="#FFF8E7" x="220" y="36.7" width="7.2" height="71.1"></rect>
                    <path d="M227.2,24.3 L227.2,27.6 L220,27.6 L220,24.3 C220,22.3 221.6,20.7 223.6,20.7 C225.6,20.7 227.2,22.3 227.2,24.3 Z" id="Shape" fill="#FFF8E7"></path>
                    <path d="M212.2,12.4 C212.9,13.1 213.4,14.1 213.4,15.3 C213.4,17.5 211.6,19.3 209.4,19.3 L209,19.3 L189.2,19.3 L188.8,19.3 C187.7,19.3 186.7,18.9 185.9,18.1 C185.2,17.4 184.7,16.4 184.7,15.2 C184.7,13 186.5,11.2 188.7,11.2 L209.4,11.2 C210.5,11.2 211.5,11.6 212.2,12.4 Z" id="Shape" fill="#ECF7FF"></path>
                    <path d="M208.9,36.7 L208.9,58.4 C201,64.5 196.4,56.6 189.1,59.9 L189.1,36.7 L208.9,36.7 Z" id="Shape" fill="#ECF7FF"></path>
                    <rect id="Rectangle-path" fill="#ECF7FF" x="189.1" y="19.3" width="19.8" height="8.4"></rect>
                    <rect id="Rectangle-path" fill="#FFF8E7" x="170.8" y="36.7" width="7.2" height="71.1"></rect>
                    <path d="M178,24.3 L178,27.6 L170.8,27.6 L170.8,24.3 C170.8,22.3 172.4,20.7 174.4,20.7 C176.4,20.7 178,22.3 178,24.3 Z" id="Shape" fill="#FFF8E7"></path>
                    <path d="M52.3,88.1 C36.2,80.5 22.3,70.2 12,80.2 L38.8,38.2 C40.5,35.5 41.4,32.4 41.4,29.2 L41.4,15.4 L63.8,15.4 L63.8,29.2 C63.8,32.4 64.7,35.5 66.4,38.2 L96.1,84.9 L95.8,85.1 C81.7,78.7 66.3,83 52.3,88.4 L52.3,88.1 Z" id="Shape" fill="#F3FCFF"></path>
                    <path d="M69.5,5.7 L69.5,9.9 C69.5,12.9 67.1,15.3 64.1,15.3 L63.9,15.3 L41.5,15.3 L41.3,15.3 C38.3,15.3 35.9,12.9 35.9,9.9 L35.9,5.7 C35.9,2.7 38.3,0.3 41.3,0.3 L64.2,0.3 C67.1,0.3 69.5,2.8 69.5,5.7 Z" id="Shape" fill="#F3FCFF"></path>
                    <path d="M52.3,88.1 L52.4,88.3 C32.6,95.8 15.3,105.2 7.3,89 L6.6,88.6 L12,80.1 C22.3,70.2 36.2,80.5 52.3,88.1 Z" id="Shape" fill="#E7F2FF"></path>
                    <path d="M102.4,94.5 L96.3,84.9 L96,85.1 C81.9,78.7 66.5,83 52.5,88.4 C32.7,95.9 15.4,105.3 7.4,89.1 L6.7,88.7 L3,94.5 C-4.1,105.7 3.9,120.4 17.2,120.4 L88.2,120.4 C101.5,120.3 109.5,105.7 102.4,94.5 Z" id="Shape" fill="#E7F2FF"></path>
                    <path d="M189.1,59.8 L189.1,88.5 C189.1,94 193.5,98.4 199,98.4 C204.5,98.4 208.9,94 208.9,88.5 L208.9,58.3 C201,64.4 196.4,56.6 189.1,59.8 Z" id="Shape" fill="#FFEEF4"></path>
                </g>
                <g id="shadows_1_" transform="translate(36.000000, 0.000000)" fill-rule="nonzero">
                    <path d="M15,9 L15,5.4 C15,5.4 15,5.4 15,5.4 C15,4.7 15.6,4.2 16.3,4.2 L32.9,4.2 L29.4,0.4 L18.6,0.4 C19.1,0.2 19.7,0.1 20.3,0.1 L11.4,0.1 C10.8,0.1 10.2,0.2 9.6,0.4 L2.5,0.4 L0.6,4.2 L4.7,4.2 C5.4,4.2 6,4.7 6.1,5.4 L6.1,5.4 L6.1,9 C6.1,12 8.5,14.4 11.5,14.4 L20.5,14.4 C17.4,14.4 15,12 15,9 Z" id="Shape" fill="#FFFFFF"></path>
                    <rect id="Rectangle-path" fill="#212121" opacity="0.05" x="153.2" y="19" width="19.5" height="8.3"></rect>
                    <rect id="Rectangle-path" fill="#212121" opacity="0.05" x="153" y="36.4" width="14.8" height="5"></rect>
                    <path d="M156,95.4 C156.6,95.5 157.3,95.6 158,95.6 C163.5,95.6 167.9,91.2 167.9,85.7 L167.9,36.4 L172.9,36.4 L172.9,88.3 C172.9,93.8 168.5,98.2 163,98.2 C160.2,98.2 157.8,97.1 156,95.4 Z" id="Shape" fill="#212121" opacity="0.05"></path>
                    <path d="M157,15.8 L157,14.1 C157,14.1 157,14.1 157,14.1 C157,13.8 157.3,13.5 157.7,13.5 L176.8,13.5 L175,11.7 L158.9,11.7 C159.2,11.6 159.5,11.6 159.8,11.6 L155.2,11.6 C154.9,11.6 154.6,11.7 154.3,11.7 L150.7,11.7 L149.7,13.5 L151.8,13.5 C152.2,13.5 152.5,13.8 152.5,14.1 L152.5,14.1 L152.5,15.8 C152.5,17.2 153.7,18.4 155.3,18.4 L159.9,18.4 C158.2,18.4 157,17.2 157,15.8 Z" id="Shape" fill="#FFFFFF"></path>
                    <rect id="Rectangle-path" fill="#212121" opacity="0.05" x="5.2" y="15.3" width="22.7" height="6.2"></rect>
                    <path d="M122.1,32.2 L200,32.2 C202.3,31.9 203,30.8 202.8,29.4 L203.7,33 L200.8,36.5 L125,36.5 L122.1,32.2 Z" id="Shape" fill="#212121" opacity="0.05"></path>
                    <rect id="Rectangle-path" fill="#212121" opacity="0.05" x="134.8" y="36.7" width="7.2" height="4.7"></rect>
                    <rect id="Rectangle-path" fill="#212121" opacity="0.05" x="184" y="36.7" width="7.2" height="4.7"></rect>
                    <polygon id="Shape" fill="#212121" opacity="0.05" points="203.8 115.6 122.9 115.6 122.1 120 204.5 120"></polygon>
                </g>
                <g id="lines" stroke="#D3D5E6" stroke-linecap="round" stroke-linejoin="round">
                    <path d="M63.5,15.3 L41.8,15.3 C38.5,15.3 35.8,12.6 35.8,9.3 L35.8,6.3 C35.8,3 38.5,0.3 41.8,0.3 L63.5,0.3 C66.8,0.3 69.5,3 69.5,6.3 L69.5,9.3 C69.5,12.6 66.8,15.3 63.5,15.3 Z" id="Shape" stroke-width="3"></path>
                    <path d="M41.5,15.3 L41.5,29.1 C41.5,32.3 40.6,35.4 38.9,38.1 L3,94.5 C-4.1,105.7 3.9,120.4 17.2,120.4 L88.2,120.4 C101.5,120.4 109.5,105.7 102.4,94.5 L66.6,38.2 C64.9,35.5 64,32.4 64,29.2 L64,15.4" id="Shape" stroke-width="3"></path>
                    <path d="M12.1,80.2 C22.3,70.3 36.2,80.5 52.4,88.1 L52.4,88.1" id="Shape" stroke-width="3"></path>
                    <circle id="Oval" stroke-width="1.5" cx="9" cy="101.7" r="2.6"></circle>
                    <circle id="Oval" stroke-width="1.5" cx="44.9" cy="104.4" r="1.9"></circle>
                    <circle id="Oval" stroke-width="1.5" cx="82.4" cy="99.9" r="1"></circle>
                    <circle id="Oval" stroke-width="1.5" cx="41.5" cy="111.9" r="1"></circle>
                    <circle id="Oval" stroke-width="1.5" cx="17" cy="101.7" r="1"></circle>
                    <circle id="Oval" stroke-width="1.5" cx="28.5" cy="113" r="1"></circle>
                    <path d="M7.4,89.1 C20.9,116.7 61.9,69.6 96,85.1" id="Shape" stroke-width="3"></path>
                    <path d="M227.2,107.7 L170.7,107.7 C163.7,107.7 158.1,113.3 158.1,120.3 L158.1,120.3 L239.8,120.3 L239.8,120.3 C239.8,113.4 234.2,107.7 227.2,107.7 Z" id="Shape" stroke-width="3"></path>
                    <path d="M178,24.3 L178,27.6 L170.8,27.6 L170.8,24.3 C170.8,22.3 172.4,20.7 174.4,20.7 C176.4,20.7 178,22.3 178,24.3 Z" id="Shape" stroke-width="3"></path>
                    <rect id="Rectangle-path" stroke-width="3" x="170.8" y="36.7" width="7.2" height="71.1"></rect>
                    <g id="XMLID_1_" transform="translate(220.000000, 36.000000)" stroke-width="3">
                        <polyline id="Shape" points="0 0.7 0 71.7 7.2 71.7 7.2 0.7"></polyline>
                    </g>
                    <path d="M220,27.7 L220,24.4 C220,22.4 221.6,20.8 223.6,20.8 C225.6,20.8 227.2,22.4 227.2,24.4 L227.2,27.7" id="Shape" stroke-width="3"></path>
                    <polyline id="Shape" stroke-width="3" points="189.1 27.7 189.1 19.3 208.9 19.3 208.9 27.7"></polyline>
                    <path d="M208.9,36.7 L208.9,88.6 C208.9,94.1 204.5,98.5 199,98.5 C193.5,98.5 189.1,94.1 189.1,88.6 L189.1,36.7" id="Shape" stroke-width="3"></path>
                    <path d="M209.3,11.2 L188.6,11.2 C186.4,11.2 184.6,13 184.6,15.2 L184.6,15.2 C184.6,17.4 186.4,19.2 188.6,19.2 L209.3,19.2 C211.5,19.2 213.3,17.4 213.3,15.2 L213.3,15.2 C213.4,13 211.6,11.2 209.3,11.2 Z" id="Shape" stroke-width="3"></path>
                    <path d="M203,78.5 L203.1,78.5" id="Shape" stroke-width="3"></path>
                    <circle id="Oval" stroke-width="1.5" cx="196.1" cy="69.6" r="2"></circle>
                    <path d="M174.3,32.2 L174.4,32.2" id="Shape" stroke-width="3"></path>
                    <path d="M223.6,32.2 L223.7,32.2" id="Shape" stroke-width="3"></path>
                    <path d="M189.1,59.8 C196.4,56.5 201,64.4 208.9,58.3" id="Shape" stroke-width="3"></path>
                    <path d="M235.3,36.7 L162.6,36.7 C160.1,36.7 158.1,34.7 158.1,32.2 L158.1,32.2 C158.1,29.7 160.1,27.7 162.6,27.7 L235.3,27.7 C237.8,27.7 239.8,29.7 239.8,32.2 L239.8,32.2 C239.8,34.7 237.8,36.7 235.3,36.7 Z" id="Shape" stroke-width="3"></path>
                    <path d="M218.1,115.6 L238.1,115.6" id="Shape" stroke-width="1.5"></path>
                    <path d="M44,53.4 L52.1,61.5" id="Shape" stroke-width="1.5"></path>
                    <path d="M46.4,60.5 L53.4,67.4" id="Shape" stroke-width="1.5"></path>
                    <path d="M55.1,19.2 L63.9,19.2" id="Shape" stroke-width="1.5"></path>
                    <path d="M60.5,114.3 L66.5,120.3" id="Shape" stroke-width="1.5"></path>
                    <path d="M230.8,112.9 L237.5,112.9" id="Shape" stroke-width="1.5"></path>
                    <path d="M224.1,36.7 L224.1,40.9" id="Shape" stroke-width="1.5"></path>
                </g>
                <g id="top_lights" transform="translate(17.000000, 41.000000)" fill-rule="nonzero" fill="#FFFFFF" opacity="0.5">
                    <path d="M20.7,9.6 L1.2,39.5 C-0.6,42.3 1.4,46 4.7,46 L15.7,46 C19.4,46 22.6,43.5 23.5,39.9 L29.7,14 C30.1,12.4 29.5,10.6 28.1,9.6 L26.7,8.5 C24.8,7.1 22,7.6 20.7,9.6 Z" id="Shape"></path>
                    <path d="M182,0.4 L176.7,0.4 L176.7,45 C176.7,46.3 177.7,47.3 179,47.3 L179.6,47.3 C180.9,47.3 181.9,46.3 181.9,45 L181.9,0.4 L182,0.4 Z" id="Shape"></path>
                </g>
            </g>
            <g id="hero">
                <g id="colors" transform="translate(72.000000, 0.000000)" fill-rule="nonzero">
                    <path d="M135.8,141.6 C136.9,142.8 137.7,144.3 137.7,146.1 C137.7,149.6 134.9,152.4 131.4,152.4 L94.6,152.4 C94.6,147.7 93.1,143.3 90.6,139.8 L131.4,139.8 C133.1,139.8 134.7,140.5 135.8,141.6 Z" id="Shape" fill="#B5D2E0"></path>
                    <path d="M118.3,177.8 C122.9,177.8 126.5,181.5 126.5,186 C126.5,188.3 125.6,190.3 124.1,191.8 C122.6,193.3 120.5,194.2 118.3,194.2 L26.9,194.2 C22.3,194.2 18.7,190.5 18.7,186 C18.7,183.7 19.6,181.7 21.1,180.2 C22.6,178.7 24.7,177.8 26.9,177.8 L50.6,177.8 L94.6,177.8 L118.3,177.8 Z" id="Shape" fill="#F7AD74"></path>
                    <path d="M115.4,69.5 C116.8,70.9 117.5,72.8 117.5,74.7 C117.5,76.6 116.8,78.5 115.4,79.9 L84.2,111.1 C81.3,114 76.7,114 73.8,111.1 C72.4,109.7 71.7,107.8 71.7,105.9 C71.7,104.1 72.4,102.2 73.8,100.8 C73.8,100.8 73.9,100.7 73.9,100.7 L105.1,69.5 C107.9,66.7 112.5,66.7 115.4,69.5 Z" id="Shape" fill="#1AB3FF"></path>
                    <path d="M94.6,152.4 L94.6,177.8 L50.6,177.8 L50.6,152.4 C50.6,152.2 50.6,152 50.6,151.9 C50.9,140 60.6,130.4 72.6,130.4 C78.7,130.4 84.2,132.9 88.2,136.8 C89.1,137.7 89.9,138.7 90.7,139.7 C93.1,143.3 94.6,147.7 94.6,152.4 Z M81.4,148 C81.4,143.1 77.5,139.2 72.6,139.2 C67.7,139.2 63.8,143.2 63.8,148 C63.8,152.9 67.7,156.8 72.6,156.8 C77.4,156.9 81.4,152.9 81.4,148 Z" id="Shape" fill="url(#linearGradient-1)"></path>
                    <path d="M72.5,139.2 C77.4,139.2 81.3,143.2 81.3,148 C81.3,152.9 77.4,156.8 72.5,156.8 C67.6,156.8 63.7,152.9 63.7,148 C63.8,143.2 67.7,139.2 72.5,139.2 Z" id="Shape" fill="#D1D1D1"></path>
                    <path d="M55.1,130.4 L72.5,130.4 C60.5,130.4 50.8,140 50.5,151.9 C22.4,149.6 0.3,126 0.3,97.3 C0.3,78.6 9.7,62.1 24,52.2 L39.8,68 C29.2,73.5 22,84.6 22,97.4 C22,115.6 36.8,130.4 55.1,130.4 Z" id="Shape" fill="#66E6FF"></path>
                    <polygon id="Shape" fill="#D7BEFC" points="39.2 21 25.2 35 25.2 35"></polygon>
                    <polygon id="Shape" fill="#B5D2E0" points="39.2 20.9 39.2 21 25.2 35 12 21.7 26 7.7"></polygon>
                    <path d="M27.3,1.4 C28,2.1 28.3,3 28.3,3.9 C28.3,4.8 28,5.7 27.3,6.4 L26,7.7 L12,21.7 L10.7,23 C9.3,24.4 7.1,24.4 5.7,23 C5,22.3 4.7,21.4 4.7,20.5 C4.7,19.6 5.1,18.7 5.7,18 L22.3,1.4 C23.7,0 25.9,0 27.3,1.4 Z" id="Shape" fill="#1AD3FF"></path>
                    <path d="M53.2,16.6 L105.6,69 L105,69.6 L73.8,100.8 C73.8,100.8 73.7,100.9 73.7,100.9 L73.2,101.4 L39.7,67.9 L24,52.1 L20.8,48.9 C18.1,46.2 18.1,41.9 20.8,39.3 L25.2,34.9 L39.2,20.9 L39.2,20.9 L43.6,16.5 C46.3,13.9 50.6,13.9 53.2,16.6 Z" id="Shape" fill="url(#linearGradient-2)"></path>
                </g>
                <g id="shadows" transform="translate(72.000000, 0.000000)" fill-rule="nonzero">
                    <rect id="Rectangle-path" fill="#1E1E1E" opacity="0.2" transform="translate(20.580185, 16.815075) rotate(-45.000000) translate(-20.580185, -16.815075) " x="10.3302833" y="14.2150999" width="20.4998034" height="5.19995013"></rect>
                    <path d="M40.6,68.7 C58,76.3 82,75.8 95.5,58.9 L105.3,68.7 L72.5,100.6 L40.6,68.7 Z" id="Shape" fill="#004075" opacity="0.08"></path>
                    <polygon id="Shape" fill="#FFFFFF" opacity="0.5" points="93.3 145 137.4 145 134.5 140.1 91.4 140.1"></polygon>
                    <polygon id="Shape" fill="#FFFFFF" opacity="0.4" points="7.5 24.6 29.1 3 23.9 0.1 4.4 19.8"></polygon>
                    <path d="M11.5,64.1 L13.1,65.7 C16,68.6 16.5,73.1 14.4,76.6 C11.2,82 9.6,87.9 9.3,94.2 C9,99 5.2,102.8 0.4,102.8 L0.4,102.8 C-0.7,88.6 3,75.7 11.5,64.1 Z" id="Shape" fill="#FFFFFF" opacity="0.35"></path>
                    <path d="M19.2,55.8 L19.2,55.8 C25.1,61.7 26.9,70.7 23.3,78.2 C20.9,83.2 19.5,89.1 20,96.3 L29.9,75.8 L39.8,67.8 L23.8,51.8 L19.2,55.8 Z" id="Shape" fill="#004075" opacity="0.1"></path>
                    <path d="M65.5,57.6 L65.5,57.6 C68.2,60.3 72.7,60.3 75.4,57.6 L75.4,57.6 C78.1,54.9 78.1,50.4 75.4,47.7 L75.4,47.7 C72.7,45 68.2,45 65.5,47.7 L65.5,47.7 C62.7,50.4 62.7,54.9 65.5,57.6 Z" id="Shape" fill="#FFFFFF" opacity="0.4"></path>
                    <path d="M114.8,69.2 L99.2,84.8 C96.3,87.7 91.7,87.7 88.8,84.8 L88.8,84.8 L105.3,68.3 L114.8,69.2" id="Shape" fill="#FFFFFF" opacity="0.25"></path>
                    <path d="M77.5,97.1 C80.8,100.4 86.7,101.4 91,97.1 L116.7,71.4 L117,77.5 L82.2,112.6 L74.5,112.6 L71.6,105 L77.5,97.1 Z" id="Shape" fill="#004075" opacity="0.12"></path>
                    <path d="M19.3,189.5 L80.7,189.5 C90.6,189.5 100.1,185.6 107.1,178.6 L107.1,178.6 L121.7,178.6 L126.7,183.6 L126.7,189.5 L121.8,194.4 L22,194.4 L19.3,189.5 Z" id="Shape" fill="#004075" opacity="0.12"></path>
                    <polygon id="Shape" fill="#004075" opacity="0.2" points="94.3 154.5 79.9 140 78.4 141.5 81 145.4 80.8 153 73.5 156.2 64.8 155.6 82 172.8 87.1 177.8 87.2 178 95 178 95 158.3"></polygon>
                    <path d="M56.8,176.8 L56.8,152.9 C56.8,147.5 59,142.2 62.9,138.4 C65.7,135.7 69.1,133.1 72.9,130.6 L63.9,132.2 L55.2,139.1 L50.7,149.4 L50.7,151.9 L50.7,176.8 L56.8,176.8 Z" id="Shape" fill="#FFFFFF" opacity="0.3"></path>
                    <polygon id="Shape" fill="#FFFFFF" opacity="0.75" points="79.1 141 66.6 153.4 69.3 156.1 80.7 144.7"></polygon>
                    <path d="M18.6,185.8 L66.4,185.8 C70.9,185.8 74.5,182.2 74.5,177.7 L74.5,177.7 L24.2,177.7 L18.6,185.8 Z" id="Shape" fill="#FFFFFF" opacity="0.35"></path>
                    <path d="M40.6,126.3 C40.6,126.6 40.6,126.9 40.5,127.2 C33.9,124.3 28.4,119.1 23.6,112.5 C25.1,116.4 26.9,120.2 29.2,123.8 C34,131.5 26.1,140.9 17.8,137.2 C17.7,137.2 17.7,137.1 17.6,137.1 C27.9,145.2 38.7,150.9 50.5,151.8 C50.8,142 56.5,135.7 65.5,131.5 C56.4,131.3 48.3,129.8 40.6,126.3 Z" id="Shape" fill="#004075" opacity="0.08"></path>
                    <path d="M65,40.2 C65,42 64.3,43.8 62.9,45.2 C60.2,48 55.7,48 53,45.2 L41.6,33.8 C40.1,32.3 37.7,32.3 36.1,33.8 C36.1,33.8 36,33.9 36,33.9 L20.9,49 L18.8,41.5 L43.7,16.6 L48.5,14.6 L53.4,16.6 L51.8,18.2 C51.8,18.2 51.7,18.3 51.7,18.3 C50.3,19.8 50.3,22.3 51.7,23.8 L63.1,35.2 C64.3,36.6 65,38.4 65,40.2 Z" id="Shape" fill="#FFFFFF" opacity="0.4"></path>
                    <path d="M68.6,152.6 C67.6,151.5 67,150.1 67,148.5 C67,145.2 69.7,142.5 73,142.5 C74.8,142.5 76.3,143.3 77.4,144.5 L79.5,142.6 C77.9,140.8 75.6,139.7 73,139.7 C68.1,139.7 64.2,143.7 64.2,148.5 C64.2,150.8 65.1,152.9 66.5,154.5 L68.6,152.6 Z" id="Shape" fill="#FFFFFF" opacity="0.75"></path>
                </g>
                <g id="lines_1_" stroke="#38548C" stroke-linecap="round" stroke-linejoin="round">
                    <path d="M7,194.3 L59.2,194.3" id="Shape" stroke-width="4"></path>
                    <path d="M66.2,194.3 L209.7,194.3" id="Shape" stroke-width="4"></path>
                    <path d="M190.3,194.3 L98.9,194.3 C94.3,194.3 90.6,190.6 90.6,186 L90.6,186 C90.6,181.4 94.3,177.7 98.9,177.7 L190.3,177.7 C194.9,177.7 198.6,181.4 198.6,186 L198.6,186 C198.5,190.6 194.8,194.3 190.3,194.3 Z" id="Shape" stroke-width="4"></path>
                    <path d="M166.6,177.8 L122.6,177.8 L122.6,152.4 C122.6,140.2 132.5,130.4 144.6,130.4 L144.6,130.4 C156.8,130.4 166.6,140.3 166.6,152.4 L166.6,177.8 Z" id="Shape" stroke-width="4"></path>
                    <circle id="Oval" stroke-width="4" cx="144.6" cy="148.1" r="8.8"></circle>
                    <path d="M138.3,154.3 L150.8,141.8" id="Shape" stroke-width="4"></path>
                    <path d="M96,52.1 C81.7,62 72.3,78.5 72.3,97.2 C72.3,125.9 94.4,149.5 122.5,151.8" id="Shape" stroke-width="4"></path>
                    <path d="M111.8,67.9 C101.2,73.4 94,84.5 94,97.3 C94,115.6 108.9,130.5 127.2,130.5 L144.6,130.5" id="Shape" stroke-width="4"></path>
                    <path d="M166.6,152.4 L203.4,152.4 C206.9,152.4 209.7,149.6 209.7,146.1 C209.7,144.4 209,142.8 207.9,141.6 C206.7,140.5 205.2,139.8 203.4,139.8 L162.6,139.8" id="Shape" stroke-width="4"></path>
                    <path d="M177.6,69 L145.2,101.4 L92.8,49 C90.1,46.3 90.1,42 92.8,39.4 L115.6,16.6 C118.3,13.9 122.6,13.9 125.2,16.6 L177.6,69 Z" id="Shape" stroke-width="4"></path>
                    <path d="M187.4,79.9 L156.2,111.1 C153.3,114 148.7,114 145.8,111.1 L145.8,111.1 C142.9,108.2 142.9,103.6 145.8,100.7 L177,69.5 C179.9,66.6 184.5,66.6 187.4,69.5 L187.4,69.5 C190.3,72.4 190.3,77 187.4,79.9 Z" id="Shape" stroke-width="4"></path>
                    <polyline id="Shape" stroke-width="4" points="98 7.7 111.3 20.9 97.2 35 83.9 21.7"></polyline>
                    <path d="M99.3,6.4 L82.6,23 C81.2,24.4 79,24.4 77.6,23 L77.6,23 C76.2,21.6 76.2,19.4 77.6,18 L94.2,1.4 C95.6,0 97.8,0 99.2,1.4 L99.2,1.4 C100.7,2.7 100.7,5 99.3,6.4 Z" id="Shape" stroke-width="4"></path>
                    <path d="M223.7,194.3 L281.6,194.3" id="Shape" stroke-width="4"></path>
                    <path d="M161.2,167.8 L161.2,177.8" id="Shape" stroke-width="2"></path>
                    <path d="M157.2,172.8 L157.2,177.8" id="Shape" stroke-width="2"></path>
                    <path d="M165.3,145 L175.2,145" id="Shape" stroke-width="2"></path>
                    <path d="M203.5,145 L209.6,145" id="Shape" stroke-width="2"></path>
                    <path d="M95.8,17.2 L101.7,11.4" id="Shape" stroke-width="2"></path>
                    <path d="M100.9,17.5 L104.3,14" id="Shape" stroke-width="2"></path>
                    <path d="M175.2,189.5 L197.4,189.5" id="Shape" stroke-width="2"></path>
                    <path d="M101,189.5 L91.3,189.5" id="Shape" stroke-width="2"></path>
                    <path d="M173.4,73.2 L168.9,68.7" id="Shape" stroke-width="2"></path>
                </g>
            </g>
        </g>
    </g>
</svg>